0
SECTION
2
HEADER
9
$INSUNITS
70
4
0
ENDSEC
0
SECTION
2
TABLES
0
TABLE
2
LTYPE
0
LTYPE
72
65
70
64
2
CONTINUOUS
3
______
73
0
40
0
0
ENDTAB
0
TABLE
2
LAYER
0
ENDTAB
0
ENDSEC
0
SECTION
2
ENTITIES
0
LINE
8
0
10
3.25
20
-2.75
11
16.25
21
-2.75
0
LINE
8
0
10
3.25
20
-16.75
11
16.25
21
-16.75
0
LINE
8
0
10
2.75
20
-3.25
11
2.75
21
-16.25
0
LINE
8
0
10
16.75
20
-3.25
11
16.75
21
-16.25
0
ARC
8
0
10
3.25
20
-3.25
40
0.5
50
90
51
180
0
ARC
8
0
10
16.25
20
-3.25
40
0.5
50
0
51
90
0
ARC
8
0
10
3.25
20
-16.25
40
0.5
50
180
51
270
0
ARC
8
0
10
16.25
20
-16.25
40
0.5
50
270
51
0
0
LINE
8
0
10
32.5
20
-2.75
11
45.5
21
-2.75
0
LINE
8
0
10
32.5
20
-16.75
11
45.5
21
-16.75
0
LINE
8
0
10
32
20
-3.25
11
32
21
-16.25
0
LINE
8
0
10
46
20
-3.25
11
46
21
-16.25
0
ARC
8
0
10
32.5
20
-3.25
40
0.5
50
90
51
180
0
ARC
8
0
10
45.5
20
-3.25
40
0.5
50
0
51
90
0
ARC
8
0
10
32.5
20
-16.25
40
0.5
50
180
51
270
0
ARC
8
0
10
45.5
20
-16.25
40
0.5
50
270
51
0
0
LINE
8
0
10
52
20
-2.75
11
65
21
-2.75
0
LINE
8
0
10
52
20
-16.75
11
65
21
-16.75
0
LINE
8
0
10
51.5
20
-3.25
11
51.5
21
-16.25
0
LINE
8
0
10
65.5
20
-3.25
11
65.5
21
-16.25
0
ARC
8
0
10
52
20
-3.25
40
0.5
50
90
51
180
0
ARC
8
0
10
65
20
-3.25
40
0.5
50
0
51
90
0
ARC
8
0
10
52
20
-16.25
40
0.5
50
180
51
270
0
ARC
8
0
10
65
20
-16.25
40
0.5
50
270
51
0
0
LINE
8
0
10
71.5
20
-2.75
11
84.5
21
-2.75
0
LINE
8
0
10
71.5
20
-16.75
11
84.5
21
-16.75
0
LINE
8
0
10
71
20
-3.25
11
71
21
-16.25
0
LINE
8
0
10
85
20
-3.25
11
85
21
-16.25
0
ARC
8
0
10
71.5
20
-3.25
40
0.5
50
90
51
180
0
ARC
8
0
10
84.5
20
-3.25
40
0.5
50
0
51
90
0
ARC
8
0
10
71.5
20
-16.25
40
0.5
50
180
51
270
0
ARC
8
0
10
84.5
20
-16.25
40
0.5
50
270
51
0
0
LINE
8
0
10
91
20
-2.75
11
104
21
-2.75
0
LINE
8
0
10
91
20
-16.75
11
104
21
-16.75
0
LINE
8
0
10
90.5
20
-3.25
11
90.5
21
-16.25
0
LINE
8
0
10
104.5
20
-3.25
11
104.5
21
-16.25
0
ARC
8
0
10
91
20
-3.25
40
0.5
50
90
51
180
0
ARC
8
0
10
104
20
-3.25
40
0.5
50
0
51
90
0
ARC
8
0
10
91
20
-16.25
40
0.5
50
180
51
270
0
ARC
8
0
10
104
20
-16.25
40
0.5
50
270
51
0
0
LINE
8
0
10
110.5
20
-2.75
11
123.5
21
-2.75
0
LINE
8
0
10
110.5
20
-16.75
11
123.5
21
-16.75
0
LINE
8
0
10
110
20
-3.25
11
110
21
-16.25
0
LINE
8
0
10
124
20
-3.25
11
124
21
-16.25
0
ARC
8
0
10
110.5
20
-3.25
40
0.5
50
90
51
180
0
ARC
8
0
10
123.5
20
-3.25
40
0.5
50
0
51
90
0
ARC
8
0
10
110.5
20
-16.25
40
0.5
50
180
51
270
0
ARC
8
0
10
123.5
20
-16.25
40
0.5
50
270
51
0
0
LINE
8
0
10
130
20
-2.75
11
143
21
-2.75
0
LINE
8
0
10
130
20
-16.75
11
143
21
-16.75
0
LINE
8
0
10
129.5
20
-3.25
11
129.5
21
-16.25
0
LINE
8
0
10
143.5
20
-3.25
11
143.5
21
-16.25
0
ARC
8
0
10
130
20
-3.25
40
0.5
50
90
51
180
0
ARC
8
0
10
143
20
-3.25
40
0.5
50
0
51
90
0
ARC
8
0
10
130
20
-16.25
40
0.5
50
180
51
270
0
ARC
8
0
10
143
20
-16.25
40
0.5
50
270
51
0
0
LINE
8
0
10
149.5
20
-2.75
11
162.5
21
-2.75
0
LINE
8
0
10
149.5
20
-16.75
11
162.5
21
-16.75
0
LINE
8
0
10
149
20
-3.25
11
149
21
-16.25
0
LINE
8
0
10
163
20
-3.25
11
163
21
-16.25
0
ARC
8
0
10
149.5
20
-3.25
40
0.5
50
90
51
180
0
ARC
8
0
10
162.5
20
-3.25
40
0.5
50
0
51
90
0
ARC
8
0
10
149.5
20
-16.25
40
0.5
50
180
51
270
0
ARC
8
0
10
162.5
20
-16.25
40
0.5
50
270
51
0
0
LINE
8
0
10
169
20
-2.75
11
182
21
-2.75
0
LINE
8
0
10
169
20
-16.75
11
182
21
-16.75
0
LINE
8
0
10
168.5
20
-3.25
11
168.5
21
-16.25
0
LINE
8
0
10
182.5
20
-3.25
11
182.5
21
-16.25
0
ARC
8
0
10
169
20
-3.25
40
0.5
50
90
51
180
0
ARC
8
0
10
182
20
-3.25
40
0.5
50
0
51
90
0
ARC
8
0
10
169
20
-16.25
40
0.5
50
180
51
270
0
ARC
8
0
10
182
20
-16.25
40
0.5
50
270
51
0
0
LINE
8
0
10
188.5
20
-2.75
11
201.5
21
-2.75
0
LINE
8
0
10
188.5
20
-16.75
11
201.5
21
-16.75
0
LINE
8
0
10
188
20
-3.25
11
188
21
-16.25
0
LINE
8
0
10
202
20
-3.25
11
202
21
-16.25
0
ARC
8
0
10
188.5
20
-3.25
40
0.5
50
90
51
180
0
ARC
8
0
10
201.5
20
-3.25
40
0.5
50
0
51
90
0
ARC
8
0
10
188.5
20
-16.25
40
0.5
50
180
51
270
0
ARC
8
0
10
201.5
20
-16.25
40
0.5
50
270
51
0
0
LINE
8
0
10
208
20
-2.75
11
221
21
-2.75
0
LINE
8
0
10
208
20
-16.75
11
221
21
-16.75
0
LINE
8
0
10
207.5
20
-3.25
11
207.5
21
-16.25
0
LINE
8
0
10
221.5
20
-3.25
11
221.5
21
-16.25
0
ARC
8
0
10
208
20
-3.25
40
0.5
50
90
51
180
0
ARC
8
0
10
221
20
-3.25
40
0.5
50
0
51
90
0
ARC
8
0
10
208
20
-16.25
40
0.5
50
180
51
270
0
ARC
8
0
10
221
20
-16.25
40
0.5
50
270
51
0
0
LINE
8
0
10
227.5
20
-2.75
11
240.5
21
-2.75
0
LINE
8
0
10
227.5
20
-16.75
11
240.5
21
-16.75
0
LINE
8
0
10
227
20
-3.25
11
227
21
-16.25
0
LINE
8
0
10
241
20
-3.25
11
241
21
-16.25
0
ARC
8
0
10
227.5
20
-3.25
40
0.5
50
90
51
180
0
ARC
8
0
10
240.5
20
-3.25
40
0.5
50
0
51
90
0
ARC
8
0
10
227.5
20
-16.25
40
0.5
50
180
51
270
0
ARC
8
0
10
240.5
20
-16.25
40
0.5
50
270
51
0
0
LINE
8
0
10
247
20
-2.75
11
260
21
-2.75
0
LINE
8
0
10
247
20
-16.75
11
260
21
-16.75
0
LINE
8
0
10
246.5
20
-3.25
11
246.5
21
-16.25
0
LINE
8
0
10
260.5
20
-3.25
11
260.5
21
-16.25
0
ARC
8
0
10
247
20
-3.25
40
0.5
50
90
51
180
0
ARC
8
0
10
260
20
-3.25
40
0.5
50
0
51
90
0
ARC
8
0
10
247
20
-16.25
40
0.5
50
180
51
270
0
ARC
8
0
10
260
20
-16.25
40
0.5
50
270
51
0
0
LINE
8
0
10
266.5
20
-2.75
11
279.5
21
-2.75
0
LINE
8
0
10
266.5
20
-16.75
11
279.5
21
-16.75
0
LINE
8
0
10
266
20
-3.25
11
266
21
-16.25
0
LINE
8
0
10
280
20
-3.25
11
280
21
-16.25
0
ARC
8
0
10
266.5
20
-3.25
40
0.5
50
90
51
180
0
ARC
8
0
10
279.5
20
-3.25
40
0.5
50
0
51
90
0
ARC
8
0
10
266.5
20
-16.25
40
0.5
50
180
51
270
0
ARC
8
0
10
279.5
20
-16.25
40
0.5
50
270
51
0
0
LINE
8
0
10
295.75
20
-2.75
11
308.75
21
-2.75
0
LINE
8
0
10
295.75
20
-16.75
11
308.75
21
-16.75
0
LINE
8
0
10
295.25
20
-3.25
11
295.25
21
-16.25
0
LINE
8
0
10
309.25
20
-3.25
11
309.25
21
-16.25
0
ARC
8
0
10
295.75
20
-3.25
40
0.5
50
90
51
180
0
ARC
8
0
10
308.75
20
-3.25
40
0.5
50
0
51
90
0
ARC
8
0
10
295.75
20
-16.25
40
0.5
50
180
51
270
0
ARC
8
0
10
308.75
20
-16.25
40
0.5
50
270
51
0
0
LINE
8
0
10
287.312
20
-3.75
11
293.312
21
-3.75
0
LINE
8
0
10
287.312
20
-18.75
11
293.312
21
-18.75
0
LINE
8
0
10
286.812
20
-4.25
11
286.812
21
-18.25
0
LINE
8
0
10
293.812
20
-4.25
11
293.812
21
-18.25
0
ARC
8
0
10
287.312
20
-4.25
40
0.5
50
90
51
180
0
ARC
8
0
10
293.312
20
-4.25
40
0.5
50
0
51
90
0
ARC
8
0
10
287.312
20
-18.25
40
0.5
50
180
51
270
0
ARC
8
0
10
293.312
20
-18.25
40
0.5
50
270
51
0
0
LINE
8
0
10
311.188
20
-3.75
11
317.188
21
-3.75
0
LINE
8
0
10
311.188
20
-18.75
11
317.188
21
-18.75
0
LINE
8
0
10
310.688
20
-4.25
11
310.688
21
-18.25
0
LINE
8
0
10
317.688
20
-4.25
11
317.688
21
-18.25
0
ARC
8
0
10
311.188
20
-4.25
40
0.5
50
90
51
180
0
ARC
8
0
10
317.188
20
-4.25
40
0.5
50
0
51
90
0
ARC
8
0
10
311.188
20
-18.25
40
0.5
50
180
51
270
0
ARC
8
0
10
317.188
20
-18.25
40
0.5
50
270
51
0
0
LINE
8
0
10
334.75
20
-2.75
11
347.75
21
-2.75
0
LINE
8
0
10
334.75
20
-16.75
11
347.75
21
-16.75
0
LINE
8
0
10
334.25
20
-3.25
11
334.25
21
-16.25
0
LINE
8
0
10
348.25
20
-3.25
11
348.25
21
-16.25
0
ARC
8
0
10
334.75
20
-3.25
40
0.5
50
90
51
180
0
ARC
8
0
10
347.75
20
-3.25
40
0.5
50
0
51
90
0
ARC
8
0
10
334.75
20
-16.25
40
0.5
50
180
51
270
0
ARC
8
0
10
347.75
20
-16.25
40
0.5
50
270
51
0
0
LINE
8
0
10
354.25
20
-2.75
11
367.25
21
-2.75
0
LINE
8
0
10
354.25
20
-16.75
11
367.25
21
-16.75
0
LINE
8
0
10
353.75
20
-3.25
11
353.75
21
-16.25
0
LINE
8
0
10
367.75
20
-3.25
11
367.75
21
-16.25
0
ARC
8
0
10
354.25
20
-3.25
40
0.5
50
90
51
180
0
ARC
8
0
10
367.25
20
-3.25
40
0.5
50
0
51
90
0
ARC
8
0
10
354.25
20
-16.25
40
0.5
50
180
51
270
0
ARC
8
0
10
367.25
20
-16.25
40
0.5
50
270
51
0
0
LINE
8
0
10
373.75
20
-2.75
11
386.75
21
-2.75
0
LINE
8
0
10
373.75
20
-16.75
11
386.75
21
-16.75
0
LINE
8
0
10
373.25
20
-3.25
11
373.25
21
-16.25
0
LINE
8
0
10
387.25
20
-3.25
11
387.25
21
-16.25
0
ARC
8
0
10
373.75
20
-3.25
40
0.5
50
90
51
180
0
ARC
8
0
10
386.75
20
-3.25
40
0.5
50
0
51
90
0
ARC
8
0
10
373.75
20
-16.25
40
0.5
50
180
51
270
0
ARC
8
0
10
386.75
20
-16.25
40
0.5
50
270
51
0
0
LINE
8
0
10
3.25
20
-22.25
11
16.25
21
-22.25
0
LINE
8
0
10
3.25
20
-36.25
11
16.25
21
-36.25
0
LINE
8
0
10
2.75
20
-22.75
11
2.75
21
-35.75
0
LINE
8
0
10
16.75
20
-22.75
11
16.75
21
-35.75
0
ARC
8
0
10
3.25
20
-22.75
40
0.5
50
90
51
180
0
ARC
8
0
10
16.25
20
-22.75
40
0.5
50
0
51
90
0
ARC
8
0
10
3.25
20
-35.75
40
0.5
50
180
51
270
0
ARC
8
0
10
16.25
20
-35.75
40
0.5
50
270
51
0
0
LINE
8
0
10
37.375
20
-22.25
11
50.375
21
-22.25
0
LINE
8
0
10
37.375
20
-36.25
11
50.375
21
-36.25
0
LINE
8
0
10
36.875
20
-22.75
11
36.875
21
-35.75
0
LINE
8
0
10
50.875
20
-22.75
11
50.875
21
-35.75
0
ARC
8
0
10
37.375
20
-22.75
40
0.5
50
90
51
180
0
ARC
8
0
10
50.375
20
-22.75
40
0.5
50
0
51
90
0
ARC
8
0
10
37.375
20
-35.75
40
0.5
50
180
51
270
0
ARC
8
0
10
50.375
20
-35.75
40
0.5
50
270
51
0
0
LINE
8
0
10
61.75
20
-22.25
11
74.75
21
-22.25
0
LINE
8
0
10
61.75
20
-36.25
11
74.75
21
-36.25
0
LINE
8
0
10
61.25
20
-22.75
11
61.25
21
-35.75
0
LINE
8
0
10
75.25
20
-22.75
11
75.25
21
-35.75
0
ARC
8
0
10
61.75
20
-22.75
40
0.5
50
90
51
180
0
ARC
8
0
10
74.75
20
-22.75
40
0.5
50
0
51
90
0
ARC
8
0
10
61.75
20
-35.75
40
0.5
50
180
51
270
0
ARC
8
0
10
74.75
20
-35.75
40
0.5
50
270
51
0
0
LINE
8
0
10
81.25
20
-22.25
11
94.25
21
-22.25
0
LINE
8
0
10
81.25
20
-36.25
11
94.25
21
-36.25
0
LINE
8
0
10
80.75
20
-22.75
11
80.75
21
-35.75
0
LINE
8
0
10
94.75
20
-22.75
11
94.75
21
-35.75
0
ARC
8
0
10
81.25
20
-22.75
40
0.5
50
90
51
180
0
ARC
8
0
10
94.25
20
-22.75
40
0.5
50
0
51
90
0
ARC
8
0
10
81.25
20
-35.75
40
0.5
50
180
51
270
0
ARC
8
0
10
94.25
20
-35.75
40
0.5
50
270
51
0
0
LINE
8
0
10
100.75
20
-22.25
11
113.75
21
-22.25
0
LINE
8
0
10
100.75
20
-36.25
11
113.75
21
-36.25
0
LINE
8
0
10
100.25
20
-22.75
11
100.25
21
-35.75
0
LINE
8
0
10
114.25
20
-22.75
11
114.25
21
-35.75
0
ARC
8
0
10
100.75
20
-22.75
40
0.5
50
90
51
180
0
ARC
8
0
10
113.75
20
-22.75
40
0.5
50
0
51
90
0
ARC
8
0
10
100.75
20
-35.75
40
0.5
50
180
51
270
0
ARC
8
0
10
113.75
20
-35.75
40
0.5
50
270
51
0
0
LINE
8
0
10
120.25
20
-22.25
11
133.25
21
-22.25
0
LINE
8
0
10
120.25
20
-36.25
11
133.25
21
-36.25
0
LINE
8
0
10
119.75
20
-22.75
11
119.75
21
-35.75
0
LINE
8
0
10
133.75
20
-22.75
11
133.75
21
-35.75
0
ARC
8
0
10
120.25
20
-22.75
40
0.5
50
90
51
180
0
ARC
8
0
10
133.25
20
-22.75
40
0.5
50
0
51
90
0
ARC
8
0
10
120.25
20
-35.75
40
0.5
50
180
51
270
0
ARC
8
0
10
133.25
20
-35.75
40
0.5
50
270
51
0
0
LINE
8
0
10
139.75
20
-22.25
11
152.75
21
-22.25
0
LINE
8
0
10
139.75
20
-36.25
11
152.75
21
-36.25
0
LINE
8
0
10
139.25
20
-22.75
11
139.25
21
-35.75
0
LINE
8
0
10
153.25
20
-22.75
11
153.25
21
-35.75
0
ARC
8
0
10
139.75
20
-22.75
40
0.5
50
90
51
180
0
ARC
8
0
10
152.75
20
-22.75
40
0.5
50
0
51
90
0
ARC
8
0
10
139.75
20
-35.75
40
0.5
50
180
51
270
0
ARC
8
0
10
152.75
20
-35.75
40
0.5
50
270
51
0
0
LINE
8
0
10
159.25
20
-22.25
11
172.25
21
-22.25
0
LINE
8
0
10
159.25
20
-36.25
11
172.25
21
-36.25
0
LINE
8
0
10
158.75
20
-22.75
11
158.75
21
-35.75
0
LINE
8
0
10
172.75
20
-22.75
11
172.75
21
-35.75
0
ARC
8
0
10
159.25
20
-22.75
40
0.5
50
90
51
180
0
ARC
8
0
10
172.25
20
-22.75
40
0.5
50
0
51
90
0
ARC
8
0
10
159.25
20
-35.75
40
0.5
50
180
51
270
0
ARC
8
0
10
172.25
20
-35.75
40
0.5
50
270
51
0
0
LINE
8
0
10
178.75
20
-22.25
11
191.75
21
-22.25
0
LINE
8
0
10
178.75
20
-36.25
11
191.75
21
-36.25
0
LINE
8
0
10
178.25
20
-22.75
11
178.25
21
-35.75
0
LINE
8
0
10
192.25
20
-22.75
11
192.25
21
-35.75
0
ARC
8
0
10
178.75
20
-22.75
40
0.5
50
90
51
180
0
ARC
8
0
10
191.75
20
-22.75
40
0.5
50
0
51
90
0
ARC
8
0
10
178.75
20
-35.75
40
0.5
50
180
51
270
0
ARC
8
0
10
191.75
20
-35.75
40
0.5
50
270
51
0
0
LINE
8
0
10
198.25
20
-22.25
11
211.25
21
-22.25
0
LINE
8
0
10
198.25
20
-36.25
11
211.25
21
-36.25
0
LINE
8
0
10
197.75
20
-22.75
11
197.75
21
-35.75
0
LINE
8
0
10
211.75
20
-22.75
11
211.75
21
-35.75
0
ARC
8
0
10
198.25
20
-22.75
40
0.5
50
90
51
180
0
ARC
8
0
10
211.25
20
-22.75
40
0.5
50
0
51
90
0
ARC
8
0
10
198.25
20
-35.75
40
0.5
50
180
51
270
0
ARC
8
0
10
211.25
20
-35.75
40
0.5
50
270
51
0
0
LINE
8
0
10
217.75
20
-22.25
11
230.75
21
-22.25
0
LINE
8
0
10
217.75
20
-36.25
11
230.75
21
-36.25
0
LINE
8
0
10
217.25
20
-22.75
11
217.25
21
-35.75
0
LINE
8
0
10
231.25
20
-22.75
11
231.25
21
-35.75
0
ARC
8
0
10
217.75
20
-22.75
40
0.5
50
90
51
180
0
ARC
8
0
10
230.75
20
-22.75
40
0.5
50
0
51
90
0
ARC
8
0
10
217.75
20
-35.75
40
0.5
50
180
51
270
0
ARC
8
0
10
230.75
20
-35.75
40
0.5
50
270
51
0
0
LINE
8
0
10
237.25
20
-22.25
11
250.25
21
-22.25
0
LINE
8
0
10
237.25
20
-36.25
11
250.25
21
-36.25
0
LINE
8
0
10
236.75
20
-22.75
11
236.75
21
-35.75
0
LINE
8
0
10
250.75
20
-22.75
11
250.75
21
-35.75
0
ARC
8
0
10
237.25
20
-22.75
40
0.5
50
90
51
180
0
ARC
8
0
10
250.25
20
-22.75
40
0.5
50
0
51
90
0
ARC
8
0
10
237.25
20
-35.75
40
0.5
50
180
51
270
0
ARC
8
0
10
250.25
20
-35.75
40
0.5
50
270
51
0
0
LINE
8
0
10
256.75
20
-22.25
11
269.75
21
-22.25
0
LINE
8
0
10
256.75
20
-36.25
11
269.75
21
-36.25
0
LINE
8
0
10
256.25
20
-22.75
11
256.25
21
-35.75
0
LINE
8
0
10
270.25
20
-22.75
11
270.25
21
-35.75
0
ARC
8
0
10
256.75
20
-22.75
40
0.5
50
90
51
180
0
ARC
8
0
10
269.75
20
-22.75
40
0.5
50
0
51
90
0
ARC
8
0
10
256.75
20
-35.75
40
0.5
50
180
51
270
0
ARC
8
0
10
269.75
20
-35.75
40
0.5
50
270
51
0
0
LINE
8
0
10
276.25
20
-22.25
11
289.25
21
-22.25
0
LINE
8
0
10
276.25
20
-36.25
11
289.25
21
-36.25
0
LINE
8
0
10
275.75
20
-22.75
11
275.75
21
-35.75
0
LINE
8
0
10
289.75
20
-22.75
11
289.75
21
-35.75
0
ARC
8
0
10
276.25
20
-22.75
40
0.5
50
90
51
180
0
ARC
8
0
10
289.25
20
-22.75
40
0.5
50
0
51
90
0
ARC
8
0
10
276.25
20
-35.75
40
0.5
50
180
51
270
0
ARC
8
0
10
289.25
20
-35.75
40
0.5
50
270
51
0
0
LINE
8
0
10
300.625
20
-22.25
11
313.625
21
-22.25
0
LINE
8
0
10
300.625
20
-36.25
11
313.625
21
-36.25
0
LINE
8
0
10
300.125
20
-22.75
11
300.125
21
-35.75
0
LINE
8
0
10
314.125
20
-22.75
11
314.125
21
-35.75
0
ARC
8
0
10
300.625
20
-22.75
40
0.5
50
90
51
180
0
ARC
8
0
10
313.625
20
-22.75
40
0.5
50
0
51
90
0
ARC
8
0
10
300.625
20
-35.75
40
0.5
50
180
51
270
0
ARC
8
0
10
313.625
20
-35.75
40
0.5
50
270
51
0
0
LINE
8
0
10
334.75
20
-22.25
11
347.75
21
-22.25
0
LINE
8
0
10
334.75
20
-36.25
11
347.75
21
-36.25
0
LINE
8
0
10
334.25
20
-22.75
11
334.25
21
-35.75
0
LINE
8
0
10
348.25
20
-22.75
11
348.25
21
-35.75
0
ARC
8
0
10
334.75
20
-22.75
40
0.5
50
90
51
180
0
ARC
8
0
10
347.75
20
-22.75
40
0.5
50
0
51
90
0
ARC
8
0
10
334.75
20
-35.75
40
0.5
50
180
51
270
0
ARC
8
0
10
347.75
20
-35.75
40
0.5
50
270
51
0
0
LINE
8
0
10
354.25
20
-22.25
11
367.25
21
-22.25
0
LINE
8
0
10
354.25
20
-36.25
11
367.25
21
-36.25
0
LINE
8
0
10
353.75
20
-22.75
11
353.75
21
-35.75
0
LINE
8
0
10
367.75
20
-22.75
11
367.75
21
-35.75
0
ARC
8
0
10
354.25
20
-22.75
40
0.5
50
90
51
180
0
ARC
8
0
10
367.25
20
-22.75
40
0.5
50
0
51
90
0
ARC
8
0
10
354.25
20
-35.75
40
0.5
50
180
51
270
0
ARC
8
0
10
367.25
20
-35.75
40
0.5
50
270
51
0
0
LINE
8
0
10
373.75
20
-22.25
11
386.75
21
-22.25
0
LINE
8
0
10
373.75
20
-36.25
11
386.75
21
-36.25
0
LINE
8
0
10
373.25
20
-22.75
11
373.25
21
-35.75
0
LINE
8
0
10
387.25
20
-22.75
11
387.25
21
-35.75
0
ARC
8
0
10
373.75
20
-22.75
40
0.5
50
90
51
180
0
ARC
8
0
10
386.75
20
-22.75
40
0.5
50
0
51
90
0
ARC
8
0
10
373.75
20
-35.75
40
0.5
50
180
51
270
0
ARC
8
0
10
386.75
20
-35.75
40
0.5
50
270
51
0
0
LINE
8
0
10
3.25
20
-41.75
11
16.25
21
-41.75
0
LINE
8
0
10
3.25
20
-55.75
11
16.25
21
-55.75
0
LINE
8
0
10
2.75
20
-42.25
11
2.75
21
-55.25
0
LINE
8
0
10
16.75
20
-42.25
11
16.75
21
-55.25
0
ARC
8
0
10
3.25
20
-42.25
40
0.5
50
90
51
180
0
ARC
8
0
10
16.25
20
-42.25
40
0.5
50
0
51
90
0
ARC
8
0
10
3.25
20
-55.25
40
0.5
50
180
51
270
0
ARC
8
0
10
16.25
20
-55.25
40
0.5
50
270
51
0
0
LINE
8
0
10
39.8125
20
-41.75
11
52.8125
21
-41.75
0
LINE
8
0
10
39.8125
20
-55.75
11
52.8125
21
-55.75
0
LINE
8
0
10
39.3125
20
-42.25
11
39.3125
21
-55.25
0
LINE
8
0
10
53.3125
20
-42.25
11
53.3125
21
-55.25
0
ARC
8
0
10
39.8125
20
-42.25
40
0.5
50
90
51
180
0
ARC
8
0
10
52.8125
20
-42.25
40
0.5
50
0
51
90
0
ARC
8
0
10
39.8125
20
-55.25
40
0.5
50
180
51
270
0
ARC
8
0
10
52.8125
20
-55.25
40
0.5
50
270
51
0
0
LINE
8
0
10
66.625
20
-41.75
11
79.625
21
-41.75
0
LINE
8
0
10
66.625
20
-55.75
11
79.625
21
-55.75
0
LINE
8
0
10
66.125
20
-42.25
11
66.125
21
-55.25
0
LINE
8
0
10
80.125
20
-42.25
11
80.125
21
-55.25
0
ARC
8
0
10
66.625
20
-42.25
40
0.5
50
90
51
180
0
ARC
8
0
10
79.625
20
-42.25
40
0.5
50
0
51
90
0
ARC
8
0
10
66.625
20
-55.25
40
0.5
50
180
51
270
0
ARC
8
0
10
79.625
20
-55.25
40
0.5
50
270
51
0
0
LINE
8
0
10
86.125
20
-41.75
11
99.125
21
-41.75
0
LINE
8
0
10
86.125
20
-55.75
11
99.125
21
-55.75
0
LINE
8
0
10
85.625
20
-42.25
11
85.625
21
-55.25
0
LINE
8
0
10
99.625
20
-42.25
11
99.625
21
-55.25
0
ARC
8
0
10
86.125
20
-42.25
40
0.5
50
90
51
180
0
ARC
8
0
10
99.125
20
-42.25
40
0.5
50
0
51
90
0
ARC
8
0
10
86.125
20
-55.25
40
0.5
50
180
51
270
0
ARC
8
0
10
99.125
20
-55.25
40
0.5
50
270
51
0
0
LINE
8
0
10
105.625
20
-41.75
11
118.625
21
-41.75
0
LINE
8
0
10
105.625
20
-55.75
11
118.625
21
-55.75
0
LINE
8
0
10
105.125
20
-42.25
11
105.125
21
-55.25
0
LINE
8
0
10
119.125
20
-42.25
11
119.125
21
-55.25
0
ARC
8
0
10
105.625
20
-42.25
40
0.5
50
90
51
180
0
ARC
8
0
10
118.625
20
-42.25
40
0.5
50
0
51
90
0
ARC
8
0
10
105.625
20
-55.25
40
0.5
50
180
51
270
0
ARC
8
0
10
118.625
20
-55.25
40
0.5
50
270
51
0
0
LINE
8
0
10
125.125
20
-41.75
11
138.125
21
-41.75
0
LINE
8
0
10
125.125
20
-55.75
11
138.125
21
-55.75
0
LINE
8
0
10
124.625
20
-42.25
11
124.625
21
-55.25
0
LINE
8
0
10
138.625
20
-42.25
11
138.625
21
-55.25
0
ARC
8
0
10
125.125
20
-42.25
40
0.5
50
90
51
180
0
ARC
8
0
10
138.125
20
-42.25
40
0.5
50
0
51
90
0
ARC
8
0
10
125.125
20
-55.25
40
0.5
50
180
51
270
0
ARC
8
0
10
138.125
20
-55.25
40
0.5
50
270
51
0
0
LINE
8
0
10
144.625
20
-41.75
11
157.625
21
-41.75
0
LINE
8
0
10
144.625
20
-55.75
11
157.625
21
-55.75
0
LINE
8
0
10
144.125
20
-42.25
11
144.125
21
-55.25
0
LINE
8
0
10
158.125
20
-42.25
11
158.125
21
-55.25
0
ARC
8
0
10
144.625
20
-42.25
40
0.5
50
90
51
180
0
ARC
8
0
10
157.625
20
-42.25
40
0.5
50
0
51
90
0
ARC
8
0
10
144.625
20
-55.25
40
0.5
50
180
51
270
0
ARC
8
0
10
157.625
20
-55.25
40
0.5
50
270
51
0
0
LINE
8
0
10
164.125
20
-41.75
11
177.125
21
-41.75
0
LINE
8
0
10
164.125
20
-55.75
11
177.125
21
-55.75
0
LINE
8
0
10
163.625
20
-42.25
11
163.625
21
-55.25
0
LINE
8
0
10
177.625
20
-42.25
11
177.625
21
-55.25
0
ARC
8
0
10
164.125
20
-42.25
40
0.5
50
90
51
180
0
ARC
8
0
10
177.125
20
-42.25
40
0.5
50
0
51
90
0
ARC
8
0
10
164.125
20
-55.25
40
0.5
50
180
51
270
0
ARC
8
0
10
177.125
20
-55.25
40
0.5
50
270
51
0
0
LINE
8
0
10
183.625
20
-41.75
11
196.625
21
-41.75
0
LINE
8
0
10
183.625
20
-55.75
11
196.625
21
-55.75
0
LINE
8
0
10
183.125
20
-42.25
11
183.125
21
-55.25
0
LINE
8
0
10
197.125
20
-42.25
11
197.125
21
-55.25
0
ARC
8
0
10
183.625
20
-42.25
40
0.5
50
90
51
180
0
ARC
8
0
10
196.625
20
-42.25
40
0.5
50
0
51
90
0
ARC
8
0
10
183.625
20
-55.25
40
0.5
50
180
51
270
0
ARC
8
0
10
196.625
20
-55.25
40
0.5
50
270
51
0
0
LINE
8
0
10
203.125
20
-41.75
11
216.125
21
-41.75
0
LINE
8
0
10
203.125
20
-55.75
11
216.125
21
-55.75
0
LINE
8
0
10
202.625
20
-42.25
11
202.625
21
-55.25
0
LINE
8
0
10
216.625
20
-42.25
11
216.625
21
-55.25
0
ARC
8
0
10
203.125
20
-42.25
40
0.5
50
90
51
180
0
ARC
8
0
10
216.125
20
-42.25
40
0.5
50
0
51
90
0
ARC
8
0
10
203.125
20
-55.25
40
0.5
50
180
51
270
0
ARC
8
0
10
216.125
20
-55.25
40
0.5
50
270
51
0
0
LINE
8
0
10
222.625
20
-41.75
11
235.625
21
-41.75
0
LINE
8
0
10
222.625
20
-55.75
11
235.625
21
-55.75
0
LINE
8
0
10
222.125
20
-42.25
11
222.125
21
-55.25
0
LINE
8
0
10
236.125
20
-42.25
11
236.125
21
-55.25
0
ARC
8
0
10
222.625
20
-42.25
40
0.5
50
90
51
180
0
ARC
8
0
10
235.625
20
-42.25
40
0.5
50
0
51
90
0
ARC
8
0
10
222.625
20
-55.25
40
0.5
50
180
51
270
0
ARC
8
0
10
235.625
20
-55.25
40
0.5
50
270
51
0
0
LINE
8
0
10
242.125
20
-41.75
11
255.125
21
-41.75
0
LINE
8
0
10
242.125
20
-55.75
11
255.125
21
-55.75
0
LINE
8
0
10
241.625
20
-42.25
11
241.625
21
-55.25
0
LINE
8
0
10
255.625
20
-42.25
11
255.625
21
-55.25
0
ARC
8
0
10
242.125
20
-42.25
40
0.5
50
90
51
180
0
ARC
8
0
10
255.125
20
-42.25
40
0.5
50
0
51
90
0
ARC
8
0
10
242.125
20
-55.25
40
0.5
50
180
51
270
0
ARC
8
0
10
255.125
20
-55.25
40
0.5
50
270
51
0
0
LINE
8
0
10
261.625
20
-41.75
11
274.625
21
-41.75
0
LINE
8
0
10
261.625
20
-55.75
11
274.625
21
-55.75
0
LINE
8
0
10
261.125
20
-42.25
11
261.125
21
-55.25
0
LINE
8
0
10
275.125
20
-42.25
11
275.125
21
-55.25
0
ARC
8
0
10
261.625
20
-42.25
40
0.5
50
90
51
180
0
ARC
8
0
10
274.625
20
-42.25
40
0.5
50
0
51
90
0
ARC
8
0
10
261.625
20
-55.25
40
0.5
50
180
51
270
0
ARC
8
0
10
274.625
20
-55.25
40
0.5
50
270
51
0
0
LINE
8
0
10
293.3125
20
-41.75
11
306.3125
21
-41.75
0
LINE
8
0
10
293.3125
20
-55.75
11
306.3125
21
-55.75
0
LINE
8
0
10
292.8125
20
-42.25
11
292.8125
21
-55.25
0
LINE
8
0
10
306.8125
20
-42.25
11
306.8125
21
-55.25
0
ARC
8
0
10
293.3125
20
-42.25
40
0.5
50
90
51
180
0
ARC
8
0
10
306.3125
20
-42.25
40
0.5
50
0
51
90
0
ARC
8
0
10
293.3125
20
-55.25
40
0.5
50
180
51
270
0
ARC
8
0
10
306.3125
20
-55.25
40
0.5
50
270
51
0
0
LINE
8
0
10
284.8745
20
-42.75
11
290.8745
21
-42.75
0
LINE
8
0
10
284.8745
20
-57.75
11
290.8745
21
-57.75
0
LINE
8
0
10
284.3745
20
-43.25
11
284.3745
21
-57.25
0
LINE
8
0
10
291.3745
20
-43.25
11
291.3745
21
-57.25
0
ARC
8
0
10
284.8745
20
-43.25
40
0.5
50
90
51
180
0
ARC
8
0
10
290.8745
20
-43.25
40
0.5
50
0
51
90
0
ARC
8
0
10
284.8745
20
-57.25
40
0.5
50
180
51
270
0
ARC
8
0
10
290.8745
20
-57.25
40
0.5
50
270
51
0
0
LINE
8
0
10
308.7505
20
-42.75
11
314.7505
21
-42.75
0
LINE
8
0
10
308.7505
20
-57.75
11
314.7505
21
-57.75
0
LINE
8
0
10
308.2505
20
-43.25
11
308.2505
21
-57.25
0
LINE
8
0
10
315.2505
20
-43.25
11
315.2505
21
-57.25
0
ARC
8
0
10
308.7505
20
-43.25
40
0.5
50
90
51
180
0
ARC
8
0
10
314.7505
20
-43.25
40
0.5
50
0
51
90
0
ARC
8
0
10
308.7505
20
-57.25
40
0.5
50
180
51
270
0
ARC
8
0
10
314.7505
20
-57.25
40
0.5
50
270
51
0
0
LINE
8
0
10
334.75
20
-41.75
11
347.75
21
-41.75
0
LINE
8
0
10
334.75
20
-55.75
11
347.75
21
-55.75
0
LINE
8
0
10
334.25
20
-42.25
11
334.25
21
-55.25
0
LINE
8
0
10
348.25
20
-42.25
11
348.25
21
-55.25
0
ARC
8
0
10
334.75
20
-42.25
40
0.5
50
90
51
180
0
ARC
8
0
10
347.75
20
-42.25
40
0.5
50
0
51
90
0
ARC
8
0
10
334.75
20
-55.25
40
0.5
50
180
51
270
0
ARC
8
0
10
347.75
20
-55.25
40
0.5
50
270
51
0
0
LINE
8
0
10
354.25
20
-41.75
11
367.25
21
-41.75
0
LINE
8
0
10
354.25
20
-55.75
11
367.25
21
-55.75
0
LINE
8
0
10
353.75
20
-42.25
11
353.75
21
-55.25
0
LINE
8
0
10
367.75
20
-42.25
11
367.75
21
-55.25
0
ARC
8
0
10
354.25
20
-42.25
40
0.5
50
90
51
180
0
ARC
8
0
10
367.25
20
-42.25
40
0.5
50
0
51
90
0
ARC
8
0
10
354.25
20
-55.25
40
0.5
50
180
51
270
0
ARC
8
0
10
367.25
20
-55.25
40
0.5
50
270
51
0
0
LINE
8
0
10
373.75
20
-41.75
11
386.75
21
-41.75
0
LINE
8
0
10
373.75
20
-55.75
11
386.75
21
-55.75
0
LINE
8
0
10
373.25
20
-42.25
11
373.25
21
-55.25
0
LINE
8
0
10
387.25
20
-42.25
11
387.25
21
-55.25
0
ARC
8
0
10
373.75
20
-42.25
40
0.5
50
90
51
180
0
ARC
8
0
10
386.75
20
-42.25
40
0.5
50
0
51
90
0
ARC
8
0
10
373.75
20
-55.25
40
0.5
50
180
51
270
0
ARC
8
0
10
386.75
20
-55.25
40
0.5
50
270
51
0
0
LINE
8
0
10
3.25
20
-61.25
11
16.25
21
-61.25
0
LINE
8
0
10
3.25
20
-75.25
11
16.25
21
-75.25
0
LINE
8
0
10
2.75
20
-61.75
11
2.75
21
-74.75
0
LINE
8
0
10
16.75
20
-61.75
11
16.75
21
-74.75
0
ARC
8
0
10
3.25
20
-61.75
40
0.5
50
90
51
180
0
ARC
8
0
10
16.25
20
-61.75
40
0.5
50
0
51
90
0
ARC
8
0
10
3.25
20
-74.75
40
0.5
50
180
51
270
0
ARC
8
0
10
16.25
20
-74.75
40
0.5
50
270
51
0
0
LINE
8
0
10
44.6875
20
-61.25
11
57.6875
21
-61.25
0
LINE
8
0
10
44.6875
20
-75.25
11
57.6875
21
-75.25
0
LINE
8
0
10
44.1875
20
-61.75
11
44.1875
21
-74.75
0
LINE
8
0
10
58.1875
20
-61.75
11
58.1875
21
-74.75
0
ARC
8
0
10
44.6875
20
-61.75
40
0.5
50
90
51
180
0
ARC
8
0
10
57.6875
20
-61.75
40
0.5
50
0
51
90
0
ARC
8
0
10
44.6875
20
-74.75
40
0.5
50
180
51
270
0
ARC
8
0
10
57.6875
20
-74.75
40
0.5
50
270
51
0
0
LINE
8
0
10
36.2495
20
-62.25
11
42.2495
21
-62.25
0
LINE
8
0
10
36.2495
20
-77.25
11
42.2495
21
-77.25
0
LINE
8
0
10
35.7495
20
-62.75
11
35.7495
21
-76.75
0
LINE
8
0
10
42.7495
20
-62.75
11
42.7495
21
-76.75
0
ARC
8
0
10
36.2495
20
-62.75
40
0.5
50
90
51
180
0
ARC
8
0
10
42.2495
20
-62.75
40
0.5
50
0
51
90
0
ARC
8
0
10
36.2495
20
-76.75
40
0.5
50
180
51
270
0
ARC
8
0
10
42.2495
20
-76.75
40
0.5
50
270
51
0
0
LINE
8
0
10
60.1255
20
-62.25
11
66.1255
21
-62.25
0
LINE
8
0
10
60.1255
20
-77.25
11
66.1255
21
-77.25
0
LINE
8
0
10
59.6255
20
-62.75
11
59.6255
21
-76.75
0
LINE
8
0
10
66.6255
20
-62.75
11
66.6255
21
-76.75
0
ARC
8
0
10
60.1255
20
-62.75
40
0.5
50
90
51
180
0
ARC
8
0
10
66.1255
20
-62.75
40
0.5
50
0
51
90
0
ARC
8
0
10
60.1255
20
-76.75
40
0.5
50
180
51
270
0
ARC
8
0
10
66.1255
20
-76.75
40
0.5
50
270
51
0
0
LINE
8
0
10
76.375
20
-61.25
11
89.375
21
-61.25
0
LINE
8
0
10
76.375
20
-75.25
11
89.375
21
-75.25
0
LINE
8
0
10
75.875
20
-61.75
11
75.875
21
-74.75
0
LINE
8
0
10
89.875
20
-61.75
11
89.875
21
-74.75
0
ARC
8
0
10
76.375
20
-61.75
40
0.5
50
90
51
180
0
ARC
8
0
10
89.375
20
-61.75
40
0.5
50
0
51
90
0
ARC
8
0
10
76.375
20
-74.75
40
0.5
50
180
51
270
0
ARC
8
0
10
89.375
20
-74.75
40
0.5
50
270
51
0
0
LINE
8
0
10
95.875
20
-61.25
11
108.875
21
-61.25
0
LINE
8
0
10
95.875
20
-75.25
11
108.875
21
-75.25
0
LINE
8
0
10
95.375
20
-61.75
11
95.375
21
-74.75
0
LINE
8
0
10
109.375
20
-61.75
11
109.375
21
-74.75
0
ARC
8
0
10
95.875
20
-61.75
40
0.5
50
90
51
180
0
ARC
8
0
10
108.875
20
-61.75
40
0.5
50
0
51
90
0
ARC
8
0
10
95.875
20
-74.75
40
0.5
50
180
51
270
0
ARC
8
0
10
108.875
20
-74.75
40
0.5
50
270
51
0
0
LINE
8
0
10
115.375
20
-61.25
11
128.375
21
-61.25
0
LINE
8
0
10
115.375
20
-75.25
11
128.375
21
-75.25
0
LINE
8
0
10
114.875
20
-61.75
11
114.875
21
-74.75
0
LINE
8
0
10
128.875
20
-61.75
11
128.875
21
-74.75
0
ARC
8
0
10
115.375
20
-61.75
40
0.5
50
90
51
180
0
ARC
8
0
10
128.375
20
-61.75
40
0.5
50
0
51
90
0
ARC
8
0
10
115.375
20
-74.75
40
0.5
50
180
51
270
0
ARC
8
0
10
128.375
20
-74.75
40
0.5
50
270
51
0
0
LINE
8
0
10
134.875
20
-61.25
11
147.875
21
-61.25
0
LINE
8
0
10
134.875
20
-75.25
11
147.875
21
-75.25
0
LINE
8
0
10
134.375
20
-61.75
11
134.375
21
-74.75
0
LINE
8
0
10
148.375
20
-61.75
11
148.375
21
-74.75
0
ARC
8
0
10
134.875
20
-61.75
40
0.5
50
90
51
180
0
ARC
8
0
10
147.875
20
-61.75
40
0.5
50
0
51
90
0
ARC
8
0
10
134.875
20
-74.75
40
0.5
50
180
51
270
0
ARC
8
0
10
147.875
20
-74.75
40
0.5
50
270
51
0
0
LINE
8
0
10
154.375
20
-61.25
11
167.375
21
-61.25
0
LINE
8
0
10
154.375
20
-75.25
11
167.375
21
-75.25
0
LINE
8
0
10
153.875
20
-61.75
11
153.875
21
-74.75
0
LINE
8
0
10
167.875
20
-61.75
11
167.875
21
-74.75
0
ARC
8
0
10
154.375
20
-61.75
40
0.5
50
90
51
180
0
ARC
8
0
10
167.375
20
-61.75
40
0.5
50
0
51
90
0
ARC
8
0
10
154.375
20
-74.75
40
0.5
50
180
51
270
0
ARC
8
0
10
167.375
20
-74.75
40
0.5
50
270
51
0
0
LINE
8
0
10
173.875
20
-61.25
11
186.875
21
-61.25
0
LINE
8
0
10
173.875
20
-75.25
11
186.875
21
-75.25
0
LINE
8
0
10
173.375
20
-61.75
11
173.375
21
-74.75
0
LINE
8
0
10
187.375
20
-61.75
11
187.375
21
-74.75
0
ARC
8
0
10
173.875
20
-61.75
40
0.5
50
90
51
180
0
ARC
8
0
10
186.875
20
-61.75
40
0.5
50
0
51
90
0
ARC
8
0
10
173.875
20
-74.75
40
0.5
50
180
51
270
0
ARC
8
0
10
186.875
20
-74.75
40
0.5
50
270
51
0
0
LINE
8
0
10
193.375
20
-61.25
11
206.375
21
-61.25
0
LINE
8
0
10
193.375
20
-75.25
11
206.375
21
-75.25
0
LINE
8
0
10
192.875
20
-61.75
11
192.875
21
-74.75
0
LINE
8
0
10
206.875
20
-61.75
11
206.875
21
-74.75
0
ARC
8
0
10
193.375
20
-61.75
40
0.5
50
90
51
180
0
ARC
8
0
10
206.375
20
-61.75
40
0.5
50
0
51
90
0
ARC
8
0
10
193.375
20
-74.75
40
0.5
50
180
51
270
0
ARC
8
0
10
206.375
20
-74.75
40
0.5
50
270
51
0
0
LINE
8
0
10
212.875
20
-61.25
11
225.875
21
-61.25
0
LINE
8
0
10
212.875
20
-75.25
11
225.875
21
-75.25
0
LINE
8
0
10
212.375
20
-61.75
11
212.375
21
-74.75
0
LINE
8
0
10
226.375
20
-61.75
11
226.375
21
-74.75
0
ARC
8
0
10
212.875
20
-61.75
40
0.5
50
90
51
180
0
ARC
8
0
10
225.875
20
-61.75
40
0.5
50
0
51
90
0
ARC
8
0
10
212.875
20
-74.75
40
0.5
50
180
51
270
0
ARC
8
0
10
225.875
20
-74.75
40
0.5
50
270
51
0
0
LINE
8
0
10
232.375
20
-61.25
11
245.375
21
-61.25
0
LINE
8
0
10
232.375
20
-75.25
11
245.375
21
-75.25
0
LINE
8
0
10
231.875
20
-61.75
11
231.875
21
-74.75
0
LINE
8
0
10
245.875
20
-61.75
11
245.875
21
-74.75
0
ARC
8
0
10
232.375
20
-61.75
40
0.5
50
90
51
180
0
ARC
8
0
10
245.375
20
-61.75
40
0.5
50
0
51
90
0
ARC
8
0
10
232.375
20
-74.75
40
0.5
50
180
51
270
0
ARC
8
0
10
245.375
20
-74.75
40
0.5
50
270
51
0
0
LINE
8
0
10
251.875
20
-61.25
11
264.875
21
-61.25
0
LINE
8
0
10
251.875
20
-75.25
11
264.875
21
-75.25
0
LINE
8
0
10
251.375
20
-61.75
11
251.375
21
-74.75
0
LINE
8
0
10
265.375
20
-61.75
11
265.375
21
-74.75
0
ARC
8
0
10
251.875
20
-61.75
40
0.5
50
90
51
180
0
ARC
8
0
10
264.875
20
-61.75
40
0.5
50
0
51
90
0
ARC
8
0
10
251.875
20
-74.75
40
0.5
50
180
51
270
0
ARC
8
0
10
264.875
20
-74.75
40
0.5
50
270
51
0
0
LINE
8
0
10
288.4375
20
-61.25
11
301.4375
21
-61.25
0
LINE
8
0
10
288.4375
20
-75.25
11
301.4375
21
-75.25
0
LINE
8
0
10
287.9375
20
-61.75
11
287.9375
21
-74.75
0
LINE
8
0
10
301.9375
20
-61.75
11
301.9375
21
-74.75
0
ARC
8
0
10
288.4375
20
-61.75
40
0.5
50
90
51
180
0
ARC
8
0
10
301.4375
20
-61.75
40
0.5
50
0
51
90
0
ARC
8
0
10
288.4375
20
-74.75
40
0.5
50
180
51
270
0
ARC
8
0
10
301.4375
20
-74.75
40
0.5
50
270
51
0
0
LINE
8
0
10
279.9995
20
-62.25
11
285.9995
21
-62.25
0
LINE
8
0
10
279.9995
20
-77.25
11
285.9995
21
-77.25
0
LINE
8
0
10
279.4995
20
-62.75
11
279.4995
21
-76.75
0
LINE
8
0
10
286.4995
20
-62.75
11
286.4995
21
-76.75
0
ARC
8
0
10
279.9995
20
-62.75
40
0.5
50
90
51
180
0
ARC
8
0
10
285.9995
20
-62.75
40
0.5
50
0
51
90
0
ARC
8
0
10
279.9995
20
-76.75
40
0.5
50
180
51
270
0
ARC
8
0
10
285.9995
20
-76.75
40
0.5
50
270
51
0
0
LINE
8
0
10
303.8755
20
-62.25
11
309.8755
21
-62.25
0
LINE
8
0
10
303.8755
20
-77.25
11
309.8755
21
-77.25
0
LINE
8
0
10
303.3755
20
-62.75
11
303.3755
21
-76.75
0
LINE
8
0
10
310.3755
20
-62.75
11
310.3755
21
-76.75
0
ARC
8
0
10
303.8755
20
-62.75
40
0.5
50
90
51
180
0
ARC
8
0
10
309.8755
20
-62.75
40
0.5
50
0
51
90
0
ARC
8
0
10
303.8755
20
-76.75
40
0.5
50
180
51
270
0
ARC
8
0
10
309.8755
20
-76.75
40
0.5
50
270
51
0
0
LINE
8
0
10
334.75
20
-61.25
11
347.75
21
-61.25
0
LINE
8
0
10
334.75
20
-75.25
11
347.75
21
-75.25
0
LINE
8
0
10
334.25
20
-61.75
11
334.25
21
-74.75
0
LINE
8
0
10
348.25
20
-61.75
11
348.25
21
-74.75
0
ARC
8
0
10
334.75
20
-61.75
40
0.5
50
90
51
180
0
ARC
8
0
10
347.75
20
-61.75
40
0.5
50
0
51
90
0
ARC
8
0
10
334.75
20
-74.75
40
0.5
50
180
51
270
0
ARC
8
0
10
347.75
20
-74.75
40
0.5
50
270
51
0
0
LINE
8
0
10
354.25
20
-61.25
11
367.25
21
-61.25
0
LINE
8
0
10
354.25
20
-75.25
11
367.25
21
-75.25
0
LINE
8
0
10
353.75
20
-61.75
11
353.75
21
-74.75
0
LINE
8
0
10
367.75
20
-61.75
11
367.75
21
-74.75
0
ARC
8
0
10
354.25
20
-61.75
40
0.5
50
90
51
180
0
ARC
8
0
10
367.25
20
-61.75
40
0.5
50
0
51
90
0
ARC
8
0
10
354.25
20
-74.75
40
0.5
50
180
51
270
0
ARC
8
0
10
367.25
20
-74.75
40
0.5
50
270
51
0
0
LINE
8
0
10
373.75
20
-61.25
11
386.75
21
-61.25
0
LINE
8
0
10
373.75
20
-75.25
11
386.75
21
-75.25
0
LINE
8
0
10
373.25
20
-61.75
11
373.25
21
-74.75
0
LINE
8
0
10
387.25
20
-61.75
11
387.25
21
-74.75
0
ARC
8
0
10
373.75
20
-61.75
40
0.5
50
90
51
180
0
ARC
8
0
10
386.75
20
-61.75
40
0.5
50
0
51
90
0
ARC
8
0
10
373.75
20
-74.75
40
0.5
50
180
51
270
0
ARC
8
0
10
386.75
20
-74.75
40
0.5
50
270
51
0
0
LINE
8
0
10
59.3125
20
-80.75
11
72.3125
21
-80.75
0
LINE
8
0
10
59.3125
20
-94.75
11
72.3125
21
-94.75
0
LINE
8
0
10
58.8125
20
-81.25
11
58.8125
21
-94.25
0
LINE
8
0
10
72.8125
20
-81.25
11
72.8125
21
-94.25
0
ARC
8
0
10
59.3125
20
-81.25
40
0.5
50
90
51
180
0
ARC
8
0
10
72.3125
20
-81.25
40
0.5
50
0
51
90
0
ARC
8
0
10
59.3125
20
-94.25
40
0.5
50
180
51
270
0
ARC
8
0
10
72.3125
20
-94.25
40
0.5
50
270
51
0
0
LINE
8
0
10
83.6875
20
-80.75
11
96.6875
21
-80.75
0
LINE
8
0
10
83.6875
20
-94.75
11
96.6875
21
-94.75
0
LINE
8
0
10
83.1875
20
-81.25
11
83.1875
21
-94.25
0
LINE
8
0
10
97.1875
20
-81.25
11
97.1875
21
-94.25
0
ARC
8
0
10
83.6875
20
-81.25
40
0.5
50
90
51
180
0
ARC
8
0
10
96.6875
20
-81.25
40
0.5
50
0
51
90
0
ARC
8
0
10
83.6875
20
-94.25
40
0.5
50
180
51
270
0
ARC
8
0
10
96.6875
20
-94.25
40
0.5
50
270
51
0
0
LINE
8
0
10
156.8125
20
-80.75
11
169.8125
21
-80.75
0
LINE
8
0
10
156.8125
20
-94.75
11
169.8125
21
-94.75
0
LINE
8
0
10
156.3125
20
-81.25
11
156.3125
21
-94.25
0
LINE
8
0
10
170.3125
20
-81.25
11
170.3125
21
-94.25
0
ARC
8
0
10
156.8125
20
-81.25
40
0.5
50
90
51
180
0
ARC
8
0
10
169.8125
20
-81.25
40
0.5
50
0
51
90
0
ARC
8
0
10
156.8125
20
-94.25
40
0.5
50
180
51
270
0
ARC
8
0
10
169.8125
20
-94.25
40
0.5
50
270
51
0
0
LINE
8
0
10
110.3125
20
-81.75
11
116.3125
21
-81.75
0
LINE
8
0
10
110.3125
20
-96.75
11
116.3125
21
-96.75
0
LINE
8
0
10
109.8125
20
-82.25
11
109.8125
21
-96.25
0
LINE
8
0
10
116.8125
20
-82.25
11
116.8125
21
-96.25
0
ARC
8
0
10
110.3125
20
-82.25
40
0.5
50
90
51
180
0
ARC
8
0
10
116.3125
20
-82.25
40
0.5
50
0
51
90
0
ARC
8
0
10
110.3125
20
-96.25
40
0.5
50
180
51
270
0
ARC
8
0
10
116.3125
20
-96.25
40
0.5
50
270
51
0
0
LINE
8
0
10
210.3125
20
-81.75
11
216.3125
21
-81.75
0
LINE
8
0
10
210.3125
20
-96.75
11
216.3125
21
-96.75
0
LINE
8
0
10
209.8125
20
-82.25
11
209.8125
21
-96.25
0
LINE
8
0
10
216.8125
20
-82.25
11
216.8125
21
-96.25
0
ARC
8
0
10
210.3125
20
-82.25
40
0.5
50
90
51
180
0
ARC
8
0
10
216.3125
20
-82.25
40
0.5
50
0
51
90
0
ARC
8
0
10
210.3125
20
-96.25
40
0.5
50
180
51
270
0
ARC
8
0
10
216.3125
20
-96.25
40
0.5
50
270
51
0
0
LINE
8
0
10
229.9375
20
-80.75
11
242.9375
21
-80.75
0
LINE
8
0
10
229.9375
20
-94.75
11
242.9375
21
-94.75
0
LINE
8
0
10
229.4375
20
-81.25
11
229.4375
21
-94.25
0
LINE
8
0
10
243.4375
20
-81.25
11
243.4375
21
-94.25
0
ARC
8
0
10
229.9375
20
-81.25
40
0.5
50
90
51
180
0
ARC
8
0
10
242.9375
20
-81.25
40
0.5
50
0
51
90
0
ARC
8
0
10
229.9375
20
-94.25
40
0.5
50
180
51
270
0
ARC
8
0
10
242.9375
20
-94.25
40
0.5
50
270
51
0
0
LINE
8
0
10
254.3125
20
-80.75
11
267.3125
21
-80.75
0
LINE
8
0
10
254.3125
20
-94.75
11
267.3125
21
-94.75
0
LINE
8
0
10
253.8125
20
-81.25
11
253.8125
21
-94.25
0
LINE
8
0
10
267.8125
20
-81.25
11
267.8125
21
-94.25
0
ARC
8
0
10
254.3125
20
-81.25
40
0.5
50
90
51
180
0
ARC
8
0
10
267.3125
20
-81.25
40
0.5
50
0
51
90
0
ARC
8
0
10
254.3125
20
-94.25
40
0.5
50
180
51
270
0
ARC
8
0
10
267.3125
20
-94.25
40
0.5
50
270
51
0
0
LINE
8
0
10
0
20
-97.5
11
390
21
-97.5
0
LINE
8
0
10
0
20
0
11
390
21
0
0
LINE
8
0
10
0
20
-97.5
11
0
21
0
0
LINE
8
0
10
390
20
-97.5
11
390
21
0
0
ENDSEC
0
EOF