<svg width="390mm" height="97.5mm" viewBox="0 0 390 97.5" xmlns="http://www.w3.org/2000/svg"><g id="svgGroup" stroke-linecap="round" fill-rule="evenodd" font-size="9pt" stroke="#000" stroke-width="0.25mm" fill="none" style="stroke:#000;stroke-width:0.25mm;fill:none"><path d="M 0 97.5 L 390 97.5 L 390 0 L 0 0 L 0 97.5 Z M 3.25 2.75 L 16.25 2.75 A 0.5 0.5 0 0 1 16.75 3.25 L 16.75 16.25 A 0.5 0.5 0 0 1 16.25 16.75 L 3.25 16.75 A 0.5 0.5 0 0 1 2.75 16.25 L 2.75 3.25 A 0.5 0.5 0 0 1 3.25 2.75 Z M 32.5 2.75 L 45.5 2.75 A 0.5 0.5 0 0 1 46 3.25 L 46 16.25 A 0.5 0.5 0 0 1 45.5 16.75 L 32.5 16.75 A 0.5 0.5 0 0 1 32 16.25 L 32 3.25 A 0.5 0.5 0 0 1 32.5 2.75 Z M 52 2.75 L 65 2.75 A 0.5 0.5 0 0 1 65.5 3.25 L 65.5 16.25 A 0.5 0.5 0 0 1 65 16.75 L 52 16.75 A 0.5 0.5 0 0 1 51.5 16.25 L 51.5 3.25 A 0.5 0.5 0 0 1 52 2.75 Z M 71.5 2.75 L 84.5 2.75 A 0.5 0.5 0 0 1 85 3.25 L 85 16.25 A 0.5 0.5 0 0 1 84.5 16.75 L 71.5 16.75 A 0.5 0.5 0 0 1 71 16.25 L 71 3.25 A 0.5 0.5 0 0 1 71.5 2.75 Z M 91 2.75 L 104 2.75 A 0.5 0.5 0 0 1 104.5 3.25 L 104.5 16.25 A 0.5 0.5 0 0 1 104 16.75 L 91 16.75 A 0.5 0.5 0 0 1 90.5 16.25 L 90.5 3.25 A 0.5 0.5 0 0 1 91 2.75 Z M 110.5 2.75 L 123.5 2.75 A 0.5 0.5 0 0 1 124 3.25 L 124 16.25 A 0.5 0.5 0 0 1 123.5 16.75 L 110.5 16.75 A 0.5 0.5 0 0 1 110 16.25 L 110 3.25 A 0.5 0.5 0 0 1 110.5 2.75 Z M 130 2.75 L 143 2.75 A 0.5 0.5 0 0 1 143.5 3.25 L 143.5 16.25 A 0.5 0.5 0 0 1 143 16.75 L 130 16.75 A 0.5 0.5 0 0 1 129.5 16.25 L 129.5 3.25 A 0.5 0.5 0 0 1 130 2.75 Z M 149.5 2.75 L 162.5 2.75 A 0.5 0.5 0 0 1 163 3.25 L 163 16.25 A 0.5 0.5 0 0 1 162.5 16.75 L 149.5 16.75 A 0.5 0.5 0 0 1 149 16.25 L 149 3.25 A 0.5 0.5 0 0 1 149.5 2.75 Z M 169 2.75 L 182 2.75 A 0.5 0.5 0 0 1 182.5 3.25 L 182.5 16.25 A 0.5 0.5 0 0 1 182 16.75 L 169 16.75 A 0.5 0.5 0 0 1 168.5 16.25 L 168.5 3.25 A 0.5 0.5 0 0 1 169 2.75 Z M 188.5 2.75 L 201.5 2.75 A 0.5 0.5 0 0 1 202 3.25 L 202 16.25 A 0.5 0.5 0 0 1 201.5 16.75 L 188.5 16.75 A 0.5 0.5 0 0 1 188 16.25 L 188 3.25 A 0.5 0.5 0 0 1 188.5 2.75 Z M 208 2.75 L 221 2.75 A 0.5 0.5 0 0 1 221.5 3.25 L 221.5 16.25 A 0.5 0.5 0 0 1 221 16.75 L 208 16.75 A 0.5 0.5 0 0 1 207.5 16.25 L 207.5 3.25 A 0.5 0.5 0 0 1 208 2.75 Z M 227.5 2.75 L 240.5 2.75 A 0.5 0.5 0 0 1 241 3.25 L 241 16.25 A 0.5 0.5 0 0 1 240.5 16.75 L 227.5 16.75 A 0.5 0.5 0 0 1 227 16.25 L 227 3.25 A 0.5 0.5 0 0 1 227.5 2.75 Z M 247 2.75 L 260 2.75 A 0.5 0.5 0 0 1 260.5 3.25 L 260.5 16.25 A 0.5 0.5 0 0 1 260 16.75 L 247 16.75 A 0.5 0.5 0 0 1 246.5 16.25 L 246.5 3.25 A 0.5 0.5 0 0 1 247 2.75 Z M 266.5 2.75 L 279.5 2.75 A 0.5 0.5 0 0 1 280 3.25 L 280 16.25 A 0.5 0.5 0 0 1 279.5 16.75 L 266.5 16.75 A 0.5 0.5 0 0 1 266 16.25 L 266 3.25 A 0.5 0.5 0 0 1 266.5 2.75 Z M 295.75 2.75 L 308.75 2.75 A 0.5 0.5 0 0 1 309.25 3.25 L 309.25 16.25 A 0.5 0.5 0 0 1 308.75 16.75 L 295.75 16.75 A 0.5 0.5 0 0 1 295.25 16.25 L 295.25 3.25 A 0.5 0.5 0 0 1 295.75 2.75 Z M 334.75 2.75 L 347.75 2.75 A 0.5 0.5 0 0 1 348.25 3.25 L 348.25 16.25 A 0.5 0.5 0 0 1 347.75 16.75 L 334.75 16.75 A 0.5 0.5 0 0 1 334.25 16.25 L 334.25 3.25 A 0.5 0.5 0 0 1 334.75 2.75 Z M 354.25 2.75 L 367.25 2.75 A 0.5 0.5 0 0 1 367.75 3.25 L 367.75 16.25 A 0.5 0.5 0 0 1 367.25 16.75 L 354.25 16.75 A 0.5 0.5 0 0 1 353.75 16.25 L 353.75 3.25 A 0.5 0.5 0 0 1 354.25 2.75 Z M 373.75 2.75 L 386.75 2.75 A 0.5 0.5 0 0 1 387.25 3.25 L 387.25 16.25 A 0.5 0.5 0 0 1 386.75 16.75 L 373.75 16.75 A 0.5 0.5 0 0 1 373.25 16.25 L 373.25 3.25 A 0.5 0.5 0 0 1 373.75 2.75 Z M 3.25 22.25 L 16.25 22.25 A 0.5 0.5 0 0 1 16.75 22.75 L 16.75 35.75 A 0.5 0.5 0 0 1 16.25 36.25 L 3.25 36.25 A 0.5 0.5 0 0 1 2.75 35.75 L 2.75 22.75 A 0.5 0.5 0 0 1 3.25 22.25 Z M 37.375 22.25 L 50.375 22.25 A 0.5 0.5 0 0 1 50.875 22.75 L 50.875 35.75 A 0.5 0.5 0 0 1 50.375 36.25 L 37.375 36.25 A 0.5 0.5 0 0 1 36.875 35.75 L 36.875 22.75 A 0.5 0.5 0 0 1 37.375 22.25 Z M 61.75 22.25 L 74.75 22.25 A 0.5 0.5 0 0 1 75.25 22.75 L 75.25 35.75 A 0.5 0.5 0 0 1 74.75 36.25 L 61.75 36.25 A 0.5 0.5 0 0 1 61.25 35.75 L 61.25 22.75 A 0.5 0.5 0 0 1 61.75 22.25 Z M 81.25 22.25 L 94.25 22.25 A 0.5 0.5 0 0 1 94.75 22.75 L 94.75 35.75 A 0.5 0.5 0 0 1 94.25 36.25 L 81.25 36.25 A 0.5 0.5 0 0 1 80.75 35.75 L 80.75 22.75 A 0.5 0.5 0 0 1 81.25 22.25 Z M 100.75 22.25 L 113.75 22.25 A 0.5 0.5 0 0 1 114.25 22.75 L 114.25 35.75 A 0.5 0.5 0 0 1 113.75 36.25 L 100.75 36.25 A 0.5 0.5 0 0 1 100.25 35.75 L 100.25 22.75 A 0.5 0.5 0 0 1 100.75 22.25 Z M 120.25 22.25 L 133.25 22.25 A 0.5 0.5 0 0 1 133.75 22.75 L 133.75 35.75 A 0.5 0.5 0 0 1 133.25 36.25 L 120.25 36.25 A 0.5 0.5 0 0 1 119.75 35.75 L 119.75 22.75 A 0.5 0.5 0 0 1 120.25 22.25 Z M 139.75 22.25 L 152.75 22.25 A 0.5 0.5 0 0 1 153.25 22.75 L 153.25 35.75 A 0.5 0.5 0 0 1 152.75 36.25 L 139.75 36.25 A 0.5 0.5 0 0 1 139.25 35.75 L 139.25 22.75 A 0.5 0.5 0 0 1 139.75 22.25 Z M 159.25 22.25 L 172.25 22.25 A 0.5 0.5 0 0 1 172.75 22.75 L 172.75 35.75 A 0.5 0.5 0 0 1 172.25 36.25 L 159.25 36.25 A 0.5 0.5 0 0 1 158.75 35.75 L 158.75 22.75 A 0.5 0.5 0 0 1 159.25 22.25 Z M 178.75 22.25 L 191.75 22.25 A 0.5 0.5 0 0 1 192.25 22.75 L 192.25 35.75 A 0.5 0.5 0 0 1 191.75 36.25 L 178.75 36.25 A 0.5 0.5 0 0 1 178.25 35.75 L 178.25 22.75 A 0.5 0.5 0 0 1 178.75 22.25 Z M 198.25 22.25 L 211.25 22.25 A 0.5 0.5 0 0 1 211.75 22.75 L 211.75 35.75 A 0.5 0.5 0 0 1 211.25 36.25 L 198.25 36.25 A 0.5 0.5 0 0 1 197.75 35.75 L 197.75 22.75 A 0.5 0.5 0 0 1 198.25 22.25 Z M 217.75 22.25 L 230.75 22.25 A 0.5 0.5 0 0 1 231.25 22.75 L 231.25 35.75 A 0.5 0.5 0 0 1 230.75 36.25 L 217.75 36.25 A 0.5 0.5 0 0 1 217.25 35.75 L 217.25 22.75 A 0.5 0.5 0 0 1 217.75 22.25 Z M 237.25 22.25 L 250.25 22.25 A 0.5 0.5 0 0 1 250.75 22.75 L 250.75 35.75 A 0.5 0.5 0 0 1 250.25 36.25 L 237.25 36.25 A 0.5 0.5 0 0 1 236.75 35.75 L 236.75 22.75 A 0.5 0.5 0 0 1 237.25 22.25 Z M 256.75 22.25 L 269.75 22.25 A 0.5 0.5 0 0 1 270.25 22.75 L 270.25 35.75 A 0.5 0.5 0 0 1 269.75 36.25 L 256.75 36.25 A 0.5 0.5 0 0 1 256.25 35.75 L 256.25 22.75 A 0.5 0.5 0 0 1 256.75 22.25 Z M 276.25 22.25 L 289.25 22.25 A 0.5 0.5 0 0 1 289.75 22.75 L 289.75 35.75 A 0.5 0.5 0 0 1 289.25 36.25 L 276.25 36.25 A 0.5 0.5 0 0 1 275.75 35.75 L 275.75 22.75 A 0.5 0.5 0 0 1 276.25 22.25 Z M 300.625 22.25 L 313.625 22.25 A 0.5 0.5 0 0 1 314.125 22.75 L 314.125 35.75 A 0.5 0.5 0 0 1 313.625 36.25 L 300.625 36.25 A 0.5 0.5 0 0 1 300.125 35.75 L 300.125 22.75 A 0.5 0.5 0 0 1 300.625 22.25 Z M 334.75 22.25 L 347.75 22.25 A 0.5 0.5 0 0 1 348.25 22.75 L 348.25 35.75 A 0.5 0.5 0 0 1 347.75 36.25 L 334.75 36.25 A 0.5 0.5 0 0 1 334.25 35.75 L 334.25 22.75 A 0.5 0.5 0 0 1 334.75 22.25 Z M 354.25 22.25 L 367.25 22.25 A 0.5 0.5 0 0 1 367.75 22.75 L 367.75 35.75 A 0.5 0.5 0 0 1 367.25 36.25 L 354.25 36.25 A 0.5 0.5 0 0 1 353.75 35.75 L 353.75 22.75 A 0.5 0.5 0 0 1 354.25 22.25 Z M 373.75 22.25 L 386.75 22.25 A 0.5 0.5 0 0 1 387.25 22.75 L 387.25 35.75 A 0.5 0.5 0 0 1 386.75 36.25 L 373.75 36.25 A 0.5 0.5 0 0 1 373.25 35.75 L 373.25 22.75 A 0.5 0.5 0 0 1 373.75 22.25 Z M 3.25 41.75 L 16.25 41.75 A 0.5 0.5 0 0 1 16.75 42.25 L 16.75 55.25 A 0.5 0.5 0 0 1 16.25 55.75 L 3.25 55.75 A 0.5 0.5 0 0 1 2.75 55.25 L 2.75 42.25 A 0.5 0.5 0 0 1 3.25 41.75 Z M 39.813 41.75 L 52.813 41.75 A 0.5 0.5 0 0 1 53.313 42.25 L 53.313 55.25 A 0.5 0.5 0 0 1 52.813 55.75 L 39.813 55.75 A 0.5 0.5 0 0 1 39.313 55.25 L 39.313 42.25 A 0.5 0.5 0 0 1 39.813 41.75 Z M 66.625 41.75 L 79.625 41.75 A 0.5 0.5 0 0 1 80.125 42.25 L 80.125 55.25 A 0.5 0.5 0 0 1 79.625 55.75 L 66.625 55.75 A 0.5 0.5 0 0 1 66.125 55.25 L 66.125 42.25 A 0.5 0.5 0 0 1 66.625 41.75 Z M 86.125 41.75 L 99.125 41.75 A 0.5 0.5 0 0 1 99.625 42.25 L 99.625 55.25 A 0.5 0.5 0 0 1 99.125 55.75 L 86.125 55.75 A 0.5 0.5 0 0 1 85.625 55.25 L 85.625 42.25 A 0.5 0.5 0 0 1 86.125 41.75 Z M 105.625 41.75 L 118.625 41.75 A 0.5 0.5 0 0 1 119.125 42.25 L 119.125 55.25 A 0.5 0.5 0 0 1 118.625 55.75 L 105.625 55.75 A 0.5 0.5 0 0 1 105.125 55.25 L 105.125 42.25 A 0.5 0.5 0 0 1 105.625 41.75 Z M 125.125 41.75 L 138.125 41.75 A 0.5 0.5 0 0 1 138.625 42.25 L 138.625 55.25 A 0.5 0.5 0 0 1 138.125 55.75 L 125.125 55.75 A 0.5 0.5 0 0 1 124.625 55.25 L 124.625 42.25 A 0.5 0.5 0 0 1 125.125 41.75 Z M 144.625 41.75 L 157.625 41.75 A 0.5 0.5 0 0 1 158.125 42.25 L 158.125 55.25 A 0.5 0.5 0 0 1 157.625 55.75 L 144.625 55.75 A 0.5 0.5 0 0 1 144.125 55.25 L 144.125 42.25 A 0.5 0.5 0 0 1 144.625 41.75 Z M 164.125 41.75 L 177.125 41.75 A 0.5 0.5 0 0 1 177.625 42.25 L 177.625 55.25 A 0.5 0.5 0 0 1 177.125 55.75 L 164.125 55.75 A 0.5 0.5 0 0 1 163.625 55.25 L 163.625 42.25 A 0.5 0.5 0 0 1 164.125 41.75 Z M 183.625 41.75 L 196.625 41.75 A 0.5 0.5 0 0 1 197.125 42.25 L 197.125 55.25 A 0.5 0.5 0 0 1 196.625 55.75 L 183.625 55.75 A 0.5 0.5 0 0 1 183.125 55.25 L 183.125 42.25 A 0.5 0.5 0 0 1 183.625 41.75 Z M 203.125 41.75 L 216.125 41.75 A 0.5 0.5 0 0 1 216.625 42.25 L 216.625 55.25 A 0.5 0.5 0 0 1 216.125 55.75 L 203.125 55.75 A 0.5 0.5 0 0 1 202.625 55.25 L 202.625 42.25 A 0.5 0.5 0 0 1 203.125 41.75 Z M 222.625 41.75 L 235.625 41.75 A 0.5 0.5 0 0 1 236.125 42.25 L 236.125 55.25 A 0.5 0.5 0 0 1 235.625 55.75 L 222.625 55.75 A 0.5 0.5 0 0 1 222.125 55.25 L 222.125 42.25 A 0.5 0.5 0 0 1 222.625 41.75 Z M 242.125 41.75 L 255.125 41.75 A 0.5 0.5 0 0 1 255.625 42.25 L 255.625 55.25 A 0.5 0.5 0 0 1 255.125 55.75 L 242.125 55.75 A 0.5 0.5 0 0 1 241.625 55.25 L 241.625 42.25 A 0.5 0.5 0 0 1 242.125 41.75 Z M 261.625 41.75 L 274.625 41.75 A 0.5 0.5 0 0 1 275.125 42.25 L 275.125 55.25 A 0.5 0.5 0 0 1 274.625 55.75 L 261.625 55.75 A 0.5 0.5 0 0 1 261.125 55.25 L 261.125 42.25 A 0.5 0.5 0 0 1 261.625 41.75 Z M 293.313 41.75 L 306.313 41.75 A 0.5 0.5 0 0 1 306.813 42.25 L 306.813 55.25 A 0.5 0.5 0 0 1 306.313 55.75 L 293.313 55.75 A 0.5 0.5 0 0 1 292.813 55.25 L 292.813 42.25 A 0.5 0.5 0 0 1 293.313 41.75 Z M 334.75 41.75 L 347.75 41.75 A 0.5 0.5 0 0 1 348.25 42.25 L 348.25 55.25 A 0.5 0.5 0 0 1 347.75 55.75 L 334.75 55.75 A 0.5 0.5 0 0 1 334.25 55.25 L 334.25 42.25 A 0.5 0.5 0 0 1 334.75 41.75 Z M 354.25 41.75 L 367.25 41.75 A 0.5 0.5 0 0 1 367.75 42.25 L 367.75 55.25 A 0.5 0.5 0 0 1 367.25 55.75 L 354.25 55.75 A 0.5 0.5 0 0 1 353.75 55.25 L 353.75 42.25 A 0.5 0.5 0 0 1 354.25 41.75 Z M 373.75 41.75 L 386.75 41.75 A 0.5 0.5 0 0 1 387.25 42.25 L 387.25 55.25 A 0.5 0.5 0 0 1 386.75 55.75 L 373.75 55.75 A 0.5 0.5 0 0 1 373.25 55.25 L 373.25 42.25 A 0.5 0.5 0 0 1 373.75 41.75 Z M 3.25 61.25 L 16.25 61.25 A 0.5 0.5 0 0 1 16.75 61.75 L 16.75 74.75 A 0.5 0.5 0 0 1 16.25 75.25 L 3.25 75.25 A 0.5 0.5 0 0 1 2.75 74.75 L 2.75 61.75 A 0.5 0.5 0 0 1 3.25 61.25 Z M 44.688 61.25 L 57.688 61.25 A 0.5 0.5 0 0 1 58.188 61.75 L 58.188 74.75 A 0.5 0.5 0 0 1 57.688 75.25 L 44.688 75.25 A 0.5 0.5 0 0 1 44.188 74.75 L 44.188 61.75 A 0.5 0.5 0 0 1 44.688 61.25 Z M 76.375 61.25 L 89.375 61.25 A 0.5 0.5 0 0 1 89.875 61.75 L 89.875 74.75 A 0.5 0.5 0 0 1 89.375 75.25 L 76.375 75.25 A 0.5 0.5 0 0 1 75.875 74.75 L 75.875 61.75 A 0.5 0.5 0 0 1 76.375 61.25 Z M 95.875 61.25 L 108.875 61.25 A 0.5 0.5 0 0 1 109.375 61.75 L 109.375 74.75 A 0.5 0.5 0 0 1 108.875 75.25 L 95.875 75.25 A 0.5 0.5 0 0 1 95.375 74.75 L 95.375 61.75 A 0.5 0.5 0 0 1 95.875 61.25 Z M 115.375 61.25 L 128.375 61.25 A 0.5 0.5 0 0 1 128.875 61.75 L 128.875 74.75 A 0.5 0.5 0 0 1 128.375 75.25 L 115.375 75.25 A 0.5 0.5 0 0 1 114.875 74.75 L 114.875 61.75 A 0.5 0.5 0 0 1 115.375 61.25 Z M 134.875 61.25 L 147.875 61.25 A 0.5 0.5 0 0 1 148.375 61.75 L 148.375 74.75 A 0.5 0.5 0 0 1 147.875 75.25 L 134.875 75.25 A 0.5 0.5 0 0 1 134.375 74.75 L 134.375 61.75 A 0.5 0.5 0 0 1 134.875 61.25 Z M 154.375 61.25 L 167.375 61.25 A 0.5 0.5 0 0 1 167.875 61.75 L 167.875 74.75 A 0.5 0.5 0 0 1 167.375 75.25 L 154.375 75.25 A 0.5 0.5 0 0 1 153.875 74.75 L 153.875 61.75 A 0.5 0.5 0 0 1 154.375 61.25 Z M 173.875 61.25 L 186.875 61.25 A 0.5 0.5 0 0 1 187.375 61.75 L 187.375 74.75 A 0.5 0.5 0 0 1 186.875 75.25 L 173.875 75.25 A 0.5 0.5 0 0 1 173.375 74.75 L 173.375 61.75 A 0.5 0.5 0 0 1 173.875 61.25 Z M 193.375 61.25 L 206.375 61.25 A 0.5 0.5 0 0 1 206.875 61.75 L 206.875 74.75 A 0.5 0.5 0 0 1 206.375 75.25 L 193.375 75.25 A 0.5 0.5 0 0 1 192.875 74.75 L 192.875 61.75 A 0.5 0.5 0 0 1 193.375 61.25 Z M 212.875 61.25 L 225.875 61.25 A 0.5 0.5 0 0 1 226.375 61.75 L 226.375 74.75 A 0.5 0.5 0 0 1 225.875 75.25 L 212.875 75.25 A 0.5 0.5 0 0 1 212.375 74.75 L 212.375 61.75 A 0.5 0.5 0 0 1 212.875 61.25 Z M 232.375 61.25 L 245.375 61.25 A 0.5 0.5 0 0 1 245.875 61.75 L 245.875 74.75 A 0.5 0.5 0 0 1 245.375 75.25 L 232.375 75.25 A 0.5 0.5 0 0 1 231.875 74.75 L 231.875 61.75 A 0.5 0.5 0 0 1 232.375 61.25 Z M 251.875 61.25 L 264.875 61.25 A 0.5 0.5 0 0 1 265.375 61.75 L 265.375 74.75 A 0.5 0.5 0 0 1 264.875 75.25 L 251.875 75.25 A 0.5 0.5 0 0 1 251.375 74.75 L 251.375 61.75 A 0.5 0.5 0 0 1 251.875 61.25 Z M 288.438 61.25 L 301.438 61.25 A 0.5 0.5 0 0 1 301.938 61.75 L 301.938 74.75 A 0.5 0.5 0 0 1 301.438 75.25 L 288.438 75.25 A 0.5 0.5 0 0 1 287.938 74.75 L 287.938 61.75 A 0.5 0.5 0 0 1 288.438 61.25 Z M 334.75 61.25 L 347.75 61.25 A 0.5 0.5 0 0 1 348.25 61.75 L 348.25 74.75 A 0.5 0.5 0 0 1 347.75 75.25 L 334.75 75.25 A 0.5 0.5 0 0 1 334.25 74.75 L 334.25 61.75 A 0.5 0.5 0 0 1 334.75 61.25 Z M 354.25 61.25 L 367.25 61.25 A 0.5 0.5 0 0 1 367.75 61.75 L 367.75 74.75 A 0.5 0.5 0 0 1 367.25 75.25 L 354.25 75.25 A 0.5 0.5 0 0 1 353.75 74.75 L 353.75 61.75 A 0.5 0.5 0 0 1 354.25 61.25 Z M 373.75 61.25 L 386.75 61.25 A 0.5 0.5 0 0 1 387.25 61.75 L 387.25 74.75 A 0.5 0.5 0 0 1 386.75 75.25 L 373.75 75.25 A 0.5 0.5 0 0 1 373.25 74.75 L 373.25 61.75 A 0.5 0.5 0 0 1 373.75 61.25 Z M 59.313 80.75 L 72.313 80.75 A 0.5 0.5 0 0 1 72.813 81.25 L 72.813 94.25 A 0.5 0.5 0 0 1 72.313 94.75 L 59.313 94.75 A 0.5 0.5 0 0 1 58.813 94.25 L 58.813 81.25 A 0.5 0.5 0 0 1 59.313 80.75 Z M 83.688 80.75 L 96.688 80.75 A 0.5 0.5 0 0 1 97.188 81.25 L 97.188 94.25 A 0.5 0.5 0 0 1 96.688 94.75 L 83.688 94.75 A 0.5 0.5 0 0 1 83.188 94.25 L 83.188 81.25 A 0.5 0.5 0 0 1 83.688 80.75 Z M 156.813 80.75 L 169.813 80.75 A 0.5 0.5 0 0 1 170.313 81.25 L 170.313 94.25 A 0.5 0.5 0 0 1 169.813 94.75 L 156.813 94.75 A 0.5 0.5 0 0 1 156.313 94.25 L 156.313 81.25 A 0.5 0.5 0 0 1 156.813 80.75 Z M 229.938 80.75 L 242.938 80.75 A 0.5 0.5 0 0 1 243.438 81.25 L 243.438 94.25 A 0.5 0.5 0 0 1 242.938 94.75 L 229.938 94.75 A 0.5 0.5 0 0 1 229.438 94.25 L 229.438 81.25 A 0.5 0.5 0 0 1 229.938 80.75 Z M 254.313 80.75 L 267.313 80.75 A 0.5 0.5 0 0 1 267.813 81.25 L 267.813 94.25 A 0.5 0.5 0 0 1 267.313 94.75 L 254.313 94.75 A 0.5 0.5 0 0 1 253.813 94.25 L 253.813 81.25 A 0.5 0.5 0 0 1 254.313 80.75 Z M 287.312 3.75 L 293.312 3.75 A 0.5 0.5 0 0 1 293.812 4.25 L 293.812 18.25 A 0.5 0.5 0 0 1 293.312 18.75 L 287.312 18.75 A 0.5 0.5 0 0 1 286.812 18.25 L 286.812 4.25 A 0.5 0.5 0 0 1 287.312 3.75 Z M 311.188 3.75 L 317.188 3.75 A 0.5 0.5 0 0 1 317.688 4.25 L 317.688 18.25 A 0.5 0.5 0 0 1 317.188 18.75 L 311.188 18.75 A 0.5 0.5 0 0 1 310.688 18.25 L 310.688 4.25 A 0.5 0.5 0 0 1 311.188 3.75 Z M 284.875 42.75 L 290.875 42.75 A 0.5 0.5 0 0 1 291.375 43.25 L 291.375 57.25 A 0.5 0.5 0 0 1 290.875 57.75 L 284.875 57.75 A 0.5 0.5 0 0 1 284.375 57.25 L 284.375 43.25 A 0.5 0.5 0 0 1 284.875 42.75 Z M 308.751 42.75 L 314.751 42.75 A 0.5 0.5 0 0 1 315.251 43.25 L 315.251 57.25 A 0.5 0.5 0 0 1 314.751 57.75 L 308.751 57.75 A 0.5 0.5 0 0 1 308.251 57.25 L 308.251 43.25 A 0.5 0.5 0 0 1 308.751 42.75 Z M 36.25 62.25 L 42.25 62.25 A 0.5 0.5 0 0 1 42.75 62.75 L 42.75 76.75 A 0.5 0.5 0 0 1 42.25 77.25 L 36.25 77.25 A 0.5 0.5 0 0 1 35.75 76.75 L 35.75 62.75 A 0.5 0.5 0 0 1 36.25 62.25 Z M 60.126 62.25 L 66.126 62.25 A 0.5 0.5 0 0 1 66.626 62.75 L 66.626 76.75 A 0.5 0.5 0 0 1 66.126 77.25 L 60.126 77.25 A 0.5 0.5 0 0 1 59.626 76.75 L 59.626 62.75 A 0.5 0.5 0 0 1 60.126 62.25 Z M 280 62.25 L 286 62.25 A 0.5 0.5 0 0 1 286.5 62.75 L 286.5 76.75 A 0.5 0.5 0 0 1 286 77.25 L 280 77.25 A 0.5 0.5 0 0 1 279.5 76.75 L 279.5 62.75 A 0.5 0.5 0 0 1 280 62.25 Z M 303.876 62.25 L 309.876 62.25 A 0.5 0.5 0 0 1 310.376 62.75 L 310.376 76.75 A 0.5 0.5 0 0 1 309.876 77.25 L 303.876 77.25 A 0.5 0.5 0 0 1 303.376 76.75 L 303.376 62.75 A 0.5 0.5 0 0 1 303.876 62.25 Z M 110.313 81.75 L 116.313 81.75 A 0.5 0.5 0 0 1 116.813 82.25 L 116.813 96.25 A 0.5 0.5 0 0 1 116.313 96.75 L 110.313 96.75 A 0.5 0.5 0 0 1 109.813 96.25 L 109.813 82.25 A 0.5 0.5 0 0 1 110.313 81.75 Z M 210.313 81.75 L 216.313 81.75 A 0.5 0.5 0 0 1 216.813 82.25 L 216.813 96.25 A 0.5 0.5 0 0 1 216.313 96.75 L 210.313 96.75 A 0.5 0.5 0 0 1 209.813 96.25 L 209.813 82.25 A 0.5 0.5 0 0 1 210.313 81.75 Z" vector-effect="non-scaling-stroke"/></g></svg>