<svg width="381mm" height="95.25mm" viewBox="0 0 381 95.25" xmlns="http://www.w3.org/2000/svg"><g id="svgGroup" stroke-linecap="round" fill-rule="evenodd" font-size="9pt" stroke="#000" stroke-width="0.25mm" fill="none" style="stroke:#000;stroke-width:0.25mm;fill:none"><path d="M 0 95.25 L 381 95.25 L 381 0 L 0 0 L 0 95.25 Z M 245.913 59.675 L 258.913 59.675 A 0.5 0.5 0 0 1 259.413 60.175 L 259.413 73.175 A 0.5 0.5 0 0 1 258.913 73.675 L 245.913 73.675 A 0.5 0.5 0 0 1 245.413 73.175 L 245.413 60.175 A 0.5 0.5 0 0 1 245.913 59.675 Z M 3.025 21.575 L 16.025 21.575 A 0.5 0.5 0 0 1 16.525 22.075 L 16.525 35.075 A 0.5 0.5 0 0 1 16.025 35.575 L 3.025 35.575 A 0.5 0.5 0 0 1 2.525 35.075 L 2.525 22.075 A 0.5 0.5 0 0 1 3.025 21.575 Z M 36.363 21.575 L 49.363 21.575 A 0.5 0.5 0 0 1 49.863 22.075 L 49.863 35.075 A 0.5 0.5 0 0 1 49.363 35.575 L 36.363 35.575 A 0.5 0.5 0 0 1 35.863 35.075 L 35.863 22.075 A 0.5 0.5 0 0 1 36.363 21.575 Z M 60.175 21.575 L 73.175 21.575 A 0.5 0.5 0 0 1 73.675 22.075 L 73.675 35.075 A 0.5 0.5 0 0 1 73.175 35.575 L 60.175 35.575 A 0.5 0.5 0 0 1 59.675 35.075 L 59.675 22.075 A 0.5 0.5 0 0 1 60.175 21.575 Z M 79.225 21.575 L 92.225 21.575 A 0.5 0.5 0 0 1 92.725 22.075 L 92.725 35.075 A 0.5 0.5 0 0 1 92.225 35.575 L 79.225 35.575 A 0.5 0.5 0 0 1 78.725 35.075 L 78.725 22.075 A 0.5 0.5 0 0 1 79.225 21.575 Z M 98.275 21.575 L 111.275 21.575 A 0.5 0.5 0 0 1 111.775 22.075 L 111.775 35.075 A 0.5 0.5 0 0 1 111.275 35.575 L 98.275 35.575 A 0.5 0.5 0 0 1 97.775 35.075 L 97.775 22.075 A 0.5 0.5 0 0 1 98.275 21.575 Z M 136.375 21.575 L 149.375 21.575 A 0.5 0.5 0 0 1 149.875 22.075 L 149.875 35.075 A 0.5 0.5 0 0 1 149.375 35.575 L 136.375 35.575 A 0.5 0.5 0 0 1 135.875 35.075 L 135.875 22.075 A 0.5 0.5 0 0 1 136.375 21.575 Z M 155.425 21.575 L 168.425 21.575 A 0.5 0.5 0 0 1 168.925 22.075 L 168.925 35.075 A 0.5 0.5 0 0 1 168.425 35.575 L 155.425 35.575 A 0.5 0.5 0 0 1 154.925 35.075 L 154.925 22.075 A 0.5 0.5 0 0 1 155.425 21.575 Z M 174.475 21.575 L 187.475 21.575 A 0.5 0.5 0 0 1 187.975 22.075 L 187.975 35.075 A 0.5 0.5 0 0 1 187.475 35.575 L 174.475 35.575 A 0.5 0.5 0 0 1 173.975 35.075 L 173.975 22.075 A 0.5 0.5 0 0 1 174.475 21.575 Z M 193.525 21.575 L 206.525 21.575 A 0.5 0.5 0 0 1 207.025 22.075 L 207.025 35.075 A 0.5 0.5 0 0 1 206.525 35.575 L 193.525 35.575 A 0.5 0.5 0 0 1 193.025 35.075 L 193.025 22.075 A 0.5 0.5 0 0 1 193.525 21.575 Z M 212.575 21.575 L 225.575 21.575 A 0.5 0.5 0 0 1 226.075 22.075 L 226.075 35.075 A 0.5 0.5 0 0 1 225.575 35.575 L 212.575 35.575 A 0.5 0.5 0 0 1 212.075 35.075 L 212.075 22.075 A 0.5 0.5 0 0 1 212.575 21.575 Z M 231.625 21.575 L 244.625 21.575 A 0.5 0.5 0 0 1 245.125 22.075 L 245.125 35.075 A 0.5 0.5 0 0 1 244.625 35.575 L 231.625 35.575 A 0.5 0.5 0 0 1 231.125 35.075 L 231.125 22.075 A 0.5 0.5 0 0 1 231.625 21.575 Z M 250.675 21.575 L 263.675 21.575 A 0.5 0.5 0 0 1 264.175 22.075 L 264.175 35.075 A 0.5 0.5 0 0 1 263.675 35.575 L 250.675 35.575 A 0.5 0.5 0 0 1 250.175 35.075 L 250.175 22.075 A 0.5 0.5 0 0 1 250.675 21.575 Z M 269.725 21.575 L 282.725 21.575 A 0.5 0.5 0 0 1 283.225 22.075 L 283.225 35.075 A 0.5 0.5 0 0 1 282.725 35.575 L 269.725 35.575 A 0.5 0.5 0 0 1 269.225 35.075 L 269.225 22.075 A 0.5 0.5 0 0 1 269.725 21.575 Z M 293.538 21.575 L 306.538 21.575 A 0.5 0.5 0 0 1 307.038 22.075 L 307.038 35.075 A 0.5 0.5 0 0 1 306.538 35.575 L 293.538 35.575 A 0.5 0.5 0 0 1 293.038 35.075 L 293.038 22.075 A 0.5 0.5 0 0 1 293.538 21.575 Z M 326.875 21.575 L 339.875 21.575 A 0.5 0.5 0 0 1 340.375 22.075 L 340.375 35.075 A 0.5 0.5 0 0 1 339.875 35.575 L 326.875 35.575 A 0.5 0.5 0 0 1 326.375 35.075 L 326.375 22.075 A 0.5 0.5 0 0 1 326.875 21.575 Z M 345.925 21.575 L 358.925 21.575 A 0.5 0.5 0 0 1 359.425 22.075 L 359.425 35.075 A 0.5 0.5 0 0 1 358.925 35.575 L 345.925 35.575 A 0.5 0.5 0 0 1 345.425 35.075 L 345.425 22.075 A 0.5 0.5 0 0 1 345.925 21.575 Z M 364.975 21.575 L 377.975 21.575 A 0.5 0.5 0 0 1 378.475 22.075 L 378.475 35.075 A 0.5 0.5 0 0 1 377.975 35.575 L 364.975 35.575 A 0.5 0.5 0 0 1 364.475 35.075 L 364.475 22.075 A 0.5 0.5 0 0 1 364.975 21.575 Z M 38.744 40.625 L 51.744 40.625 A 0.5 0.5 0 0 1 52.244 41.125 L 52.244 54.125 A 0.5 0.5 0 0 1 51.744 54.625 L 38.744 54.625 A 0.5 0.5 0 0 1 38.244 54.125 L 38.244 41.125 A 0.5 0.5 0 0 1 38.744 40.625 Z M 64.938 40.625 L 77.938 40.625 A 0.5 0.5 0 0 1 78.438 41.125 L 78.438 54.125 A 0.5 0.5 0 0 1 77.938 54.625 L 64.938 54.625 A 0.5 0.5 0 0 1 64.438 54.125 L 64.438 41.125 A 0.5 0.5 0 0 1 64.938 40.625 Z M 83.988 40.625 L 96.988 40.625 A 0.5 0.5 0 0 1 97.488 41.125 L 97.488 54.125 A 0.5 0.5 0 0 1 96.988 54.625 L 83.988 54.625 A 0.5 0.5 0 0 1 83.488 54.125 L 83.488 41.125 A 0.5 0.5 0 0 1 83.988 40.625 Z M 103.038 40.625 L 116.038 40.625 A 0.5 0.5 0 0 1 116.538 41.125 L 116.538 54.125 A 0.5 0.5 0 0 1 116.038 54.625 L 103.038 54.625 A 0.5 0.5 0 0 1 102.538 54.125 L 102.538 41.125 A 0.5 0.5 0 0 1 103.038 40.625 Z M 122.088 40.625 L 135.088 40.625 A 0.5 0.5 0 0 1 135.588 41.125 L 135.588 54.125 A 0.5 0.5 0 0 1 135.088 54.625 L 122.088 54.625 A 0.5 0.5 0 0 1 121.588 54.125 L 121.588 41.125 A 0.5 0.5 0 0 1 122.088 40.625 Z M 141.138 40.625 L 154.138 40.625 A 0.5 0.5 0 0 1 154.638 41.125 L 154.638 54.125 A 0.5 0.5 0 0 1 154.138 54.625 L 141.138 54.625 A 0.5 0.5 0 0 1 140.638 54.125 L 140.638 41.125 A 0.5 0.5 0 0 1 141.138 40.625 Z M 160.188 40.625 L 173.188 40.625 A 0.5 0.5 0 0 1 173.688 41.125 L 173.688 54.125 A 0.5 0.5 0 0 1 173.188 54.625 L 160.188 54.625 A 0.5 0.5 0 0 1 159.688 54.125 L 159.688 41.125 A 0.5 0.5 0 0 1 160.188 40.625 Z M 179.238 40.625 L 192.238 40.625 A 0.5 0.5 0 0 1 192.738 41.125 L 192.738 54.125 A 0.5 0.5 0 0 1 192.238 54.625 L 179.238 54.625 A 0.5 0.5 0 0 1 178.738 54.125 L 178.738 41.125 A 0.5 0.5 0 0 1 179.238 40.625 Z M 198.288 40.625 L 211.288 40.625 A 0.5 0.5 0 0 1 211.788 41.125 L 211.788 54.125 A 0.5 0.5 0 0 1 211.288 54.625 L 198.288 54.625 A 0.5 0.5 0 0 1 197.788 54.125 L 197.788 41.125 A 0.5 0.5 0 0 1 198.288 40.625 Z M 217.338 40.625 L 230.338 40.625 A 0.5 0.5 0 0 1 230.838 41.125 L 230.838 54.125 A 0.5 0.5 0 0 1 230.338 54.625 L 217.338 54.625 A 0.5 0.5 0 0 1 216.838 54.125 L 216.838 41.125 A 0.5 0.5 0 0 1 217.338 40.625 Z M 236.388 40.625 L 249.388 40.625 A 0.5 0.5 0 0 1 249.888 41.125 L 249.888 54.125 A 0.5 0.5 0 0 1 249.388 54.625 L 236.388 54.625 A 0.5 0.5 0 0 1 235.888 54.125 L 235.888 41.125 A 0.5 0.5 0 0 1 236.388 40.625 Z M 255.438 40.625 L 268.438 40.625 A 0.5 0.5 0 0 1 268.938 41.125 L 268.938 54.125 A 0.5 0.5 0 0 1 268.438 54.625 L 255.438 54.625 A 0.5 0.5 0 0 1 254.938 54.125 L 254.938 41.125 A 0.5 0.5 0 0 1 255.438 40.625 Z M 286.394 40.625 L 299.394 40.625 A 0.5 0.5 0 0 1 299.894 41.125 L 299.894 54.125 A 0.5 0.5 0 0 1 299.394 54.625 L 286.394 54.625 A 0.5 0.5 0 0 1 285.894 54.125 L 285.894 41.125 A 0.5 0.5 0 0 1 286.394 40.625 Z M 326.875 40.625 L 339.875 40.625 A 0.5 0.5 0 0 1 340.375 41.125 L 340.375 54.125 A 0.5 0.5 0 0 1 339.875 54.625 L 326.875 54.625 A 0.5 0.5 0 0 1 326.375 54.125 L 326.375 41.125 A 0.5 0.5 0 0 1 326.875 40.625 Z M 345.925 40.625 L 358.925 40.625 A 0.5 0.5 0 0 1 359.425 41.125 L 359.425 54.125 A 0.5 0.5 0 0 1 358.925 54.625 L 345.925 54.625 A 0.5 0.5 0 0 1 345.425 54.125 L 345.425 41.125 A 0.5 0.5 0 0 1 345.925 40.625 Z M 364.975 40.625 L 377.975 40.625 A 0.5 0.5 0 0 1 378.475 41.125 L 378.475 54.125 A 0.5 0.5 0 0 1 377.975 54.625 L 364.975 54.625 A 0.5 0.5 0 0 1 364.475 54.125 L 364.475 41.125 A 0.5 0.5 0 0 1 364.975 40.625 Z M 43.506 59.675 L 56.506 59.675 A 0.5 0.5 0 0 1 57.006 60.175 L 57.006 73.175 A 0.5 0.5 0 0 1 56.506 73.675 L 43.506 73.675 A 0.5 0.5 0 0 1 43.006 73.175 L 43.006 60.175 A 0.5 0.5 0 0 1 43.506 59.675 Z M 74.463 59.675 L 87.463 59.675 A 0.5 0.5 0 0 1 87.963 60.175 L 87.963 73.175 A 0.5 0.5 0 0 1 87.463 73.675 L 74.463 73.675 A 0.5 0.5 0 0 1 73.963 73.175 L 73.963 60.175 A 0.5 0.5 0 0 1 74.463 59.675 Z M 93.513 59.675 L 106.513 59.675 A 0.5 0.5 0 0 1 107.013 60.175 L 107.013 73.175 A 0.5 0.5 0 0 1 106.513 73.675 L 93.513 73.675 A 0.5 0.5 0 0 1 93.013 73.175 L 93.013 60.175 A 0.5 0.5 0 0 1 93.513 59.675 Z M 112.563 59.675 L 125.563 59.675 A 0.5 0.5 0 0 1 126.063 60.175 L 126.063 73.175 A 0.5 0.5 0 0 1 125.563 73.675 L 112.563 73.675 A 0.5 0.5 0 0 1 112.063 73.175 L 112.063 60.175 A 0.5 0.5 0 0 1 112.563 59.675 Z M 131.613 59.675 L 144.613 59.675 A 0.5 0.5 0 0 1 145.113 60.175 L 145.113 73.175 A 0.5 0.5 0 0 1 144.613 73.675 L 131.613 73.675 A 0.5 0.5 0 0 1 131.113 73.175 L 131.113 60.175 A 0.5 0.5 0 0 1 131.613 59.675 Z M 150.663 59.675 L 163.663 59.675 A 0.5 0.5 0 0 1 164.163 60.175 L 164.163 73.175 A 0.5 0.5 0 0 1 163.663 73.675 L 150.663 73.675 A 0.5 0.5 0 0 1 150.163 73.175 L 150.163 60.175 A 0.5 0.5 0 0 1 150.663 59.675 Z M 169.713 59.675 L 182.713 59.675 A 0.5 0.5 0 0 1 183.213 60.175 L 183.213 73.175 A 0.5 0.5 0 0 1 182.713 73.675 L 169.713 73.675 A 0.5 0.5 0 0 1 169.213 73.175 L 169.213 60.175 A 0.5 0.5 0 0 1 169.713 59.675 Z M 188.763 59.675 L 201.763 59.675 A 0.5 0.5 0 0 1 202.263 60.175 L 202.263 73.175 A 0.5 0.5 0 0 1 201.763 73.675 L 188.763 73.675 A 0.5 0.5 0 0 1 188.263 73.175 L 188.263 60.175 A 0.5 0.5 0 0 1 188.763 59.675 Z M 207.813 59.675 L 220.813 59.675 A 0.5 0.5 0 0 1 221.313 60.175 L 221.313 73.175 A 0.5 0.5 0 0 1 220.813 73.675 L 207.813 73.675 A 0.5 0.5 0 0 1 207.313 73.175 L 207.313 60.175 A 0.5 0.5 0 0 1 207.813 59.675 Z M 226.863 59.675 L 239.863 59.675 A 0.5 0.5 0 0 1 240.363 60.175 L 240.363 73.175 A 0.5 0.5 0 0 1 239.863 73.675 L 226.863 73.675 A 0.5 0.5 0 0 1 226.363 73.175 L 226.363 60.175 A 0.5 0.5 0 0 1 226.863 59.675 Z M 281.631 59.675 L 294.631 59.675 A 0.5 0.5 0 0 1 295.131 60.175 L 295.131 73.175 A 0.5 0.5 0 0 1 294.631 73.675 L 281.631 73.675 A 0.5 0.5 0 0 1 281.131 73.175 L 281.131 60.175 A 0.5 0.5 0 0 1 281.631 59.675 Z M 326.875 59.675 L 339.875 59.675 A 0.5 0.5 0 0 1 340.375 60.175 L 340.375 73.175 A 0.5 0.5 0 0 1 339.875 73.675 L 326.875 73.675 A 0.5 0.5 0 0 1 326.375 73.175 L 326.375 60.175 A 0.5 0.5 0 0 1 326.875 59.675 Z M 345.925 59.675 L 358.925 59.675 A 0.5 0.5 0 0 1 359.425 60.175 L 359.425 73.175 A 0.5 0.5 0 0 1 358.925 73.675 L 345.925 73.675 A 0.5 0.5 0 0 1 345.425 73.175 L 345.425 60.175 A 0.5 0.5 0 0 1 345.925 59.675 Z M 364.975 59.675 L 377.975 59.675 A 0.5 0.5 0 0 1 378.475 60.175 L 378.475 73.175 A 0.5 0.5 0 0 1 377.975 73.675 L 364.975 73.675 A 0.5 0.5 0 0 1 364.475 73.175 L 364.475 60.175 A 0.5 0.5 0 0 1 364.975 59.675 Z M 57.794 78.725 L 70.794 78.725 A 0.5 0.5 0 0 1 71.294 79.225 L 71.294 92.225 A 0.5 0.5 0 0 1 70.794 92.725 L 57.794 92.725 A 0.5 0.5 0 0 1 57.294 92.225 L 57.294 79.225 A 0.5 0.5 0 0 1 57.794 78.725 Z M 81.606 78.725 L 94.606 78.725 A 0.5 0.5 0 0 1 95.106 79.225 L 95.106 92.225 A 0.5 0.5 0 0 1 94.606 92.725 L 81.606 92.725 A 0.5 0.5 0 0 1 81.106 92.225 L 81.106 79.225 A 0.5 0.5 0 0 1 81.606 78.725 Z M 153.044 78.725 L 166.044 78.725 A 0.5 0.5 0 0 1 166.544 79.225 L 166.544 92.225 A 0.5 0.5 0 0 1 166.044 92.725 L 153.044 92.725 A 0.5 0.5 0 0 1 152.544 92.225 L 152.544 79.225 A 0.5 0.5 0 0 1 153.044 78.725 Z M 224.481 78.725 L 237.481 78.725 A 0.5 0.5 0 0 1 237.981 79.225 L 237.981 92.225 A 0.5 0.5 0 0 1 237.481 92.725 L 224.481 92.725 A 0.5 0.5 0 0 1 223.981 92.225 L 223.981 79.225 A 0.5 0.5 0 0 1 224.481 78.725 Z M 248.294 78.725 L 261.294 78.725 A 0.5 0.5 0 0 1 261.794 79.225 L 261.794 92.225 A 0.5 0.5 0 0 1 261.294 92.725 L 248.294 92.725 A 0.5 0.5 0 0 1 247.794 92.225 L 247.794 79.225 A 0.5 0.5 0 0 1 248.294 78.725 Z M 3.025 2.525 L 16.025 2.525 A 0.5 0.5 0 0 1 16.525 3.025 L 16.525 16.025 A 0.5 0.5 0 0 1 16.025 16.525 L 3.025 16.525 A 0.5 0.5 0 0 1 2.525 16.025 L 2.525 3.025 A 0.5 0.5 0 0 1 3.025 2.525 Z M 31.6 2.525 L 44.6 2.525 A 0.5 0.5 0 0 1 45.1 3.025 L 45.1 16.025 A 0.5 0.5 0 0 1 44.6 16.525 L 31.6 16.525 A 0.5 0.5 0 0 1 31.1 16.025 L 31.1 3.025 A 0.5 0.5 0 0 1 31.6 2.525 Z M 50.65 2.525 L 63.65 2.525 A 0.5 0.5 0 0 1 64.15 3.025 L 64.15 16.025 A 0.5 0.5 0 0 1 63.65 16.525 L 50.65 16.525 A 0.5 0.5 0 0 1 50.15 16.025 L 50.15 3.025 A 0.5 0.5 0 0 1 50.65 2.525 Z M 69.7 2.525 L 82.7 2.525 A 0.5 0.5 0 0 1 83.2 3.025 L 83.2 16.025 A 0.5 0.5 0 0 1 82.7 16.525 L 69.7 16.525 A 0.5 0.5 0 0 1 69.2 16.025 L 69.2 3.025 A 0.5 0.5 0 0 1 69.7 2.525 Z M 88.75 2.525 L 101.75 2.525 A 0.5 0.5 0 0 1 102.25 3.025 L 102.25 16.025 A 0.5 0.5 0 0 1 101.75 16.525 L 88.75 16.525 A 0.5 0.5 0 0 1 88.25 16.025 L 88.25 3.025 A 0.5 0.5 0 0 1 88.75 2.525 Z M 107.8 2.525 L 120.8 2.525 A 0.5 0.5 0 0 1 121.3 3.025 L 121.3 16.025 A 0.5 0.5 0 0 1 120.8 16.525 L 107.8 16.525 A 0.5 0.5 0 0 1 107.3 16.025 L 107.3 3.025 A 0.5 0.5 0 0 1 107.8 2.525 Z M 126.85 2.525 L 139.85 2.525 A 0.5 0.5 0 0 1 140.35 3.025 L 140.35 16.025 A 0.5 0.5 0 0 1 139.85 16.525 L 126.85 16.525 A 0.5 0.5 0 0 1 126.35 16.025 L 126.35 3.025 A 0.5 0.5 0 0 1 126.85 2.525 Z M 145.9 2.525 L 158.9 2.525 A 0.5 0.5 0 0 1 159.4 3.025 L 159.4 16.025 A 0.5 0.5 0 0 1 158.9 16.525 L 145.9 16.525 A 0.5 0.5 0 0 1 145.4 16.025 L 145.4 3.025 A 0.5 0.5 0 0 1 145.9 2.525 Z M 164.95 2.525 L 177.95 2.525 A 0.5 0.5 0 0 1 178.45 3.025 L 178.45 16.025 A 0.5 0.5 0 0 1 177.95 16.525 L 164.95 16.525 A 0.5 0.5 0 0 1 164.45 16.025 L 164.45 3.025 A 0.5 0.5 0 0 1 164.95 2.525 Z M 184 2.525 L 197 2.525 A 0.5 0.5 0 0 1 197.5 3.025 L 197.5 16.025 A 0.5 0.5 0 0 1 197 16.525 L 184 16.525 A 0.5 0.5 0 0 1 183.5 16.025 L 183.5 3.025 A 0.5 0.5 0 0 1 184 2.525 Z M 203.05 2.525 L 216.05 2.525 A 0.5 0.5 0 0 1 216.55 3.025 L 216.55 16.025 A 0.5 0.5 0 0 1 216.05 16.525 L 203.05 16.525 A 0.5 0.5 0 0 1 202.55 16.025 L 202.55 3.025 A 0.5 0.5 0 0 1 203.05 2.525 Z M 222.1 2.525 L 235.1 2.525 A 0.5 0.5 0 0 1 235.6 3.025 L 235.6 16.025 A 0.5 0.5 0 0 1 235.1 16.525 L 222.1 16.525 A 0.5 0.5 0 0 1 221.6 16.025 L 221.6 3.025 A 0.5 0.5 0 0 1 222.1 2.525 Z M 241.15 2.525 L 254.15 2.525 A 0.5 0.5 0 0 1 254.65 3.025 L 254.65 16.025 A 0.5 0.5 0 0 1 254.15 16.525 L 241.15 16.525 A 0.5 0.5 0 0 1 240.65 16.025 L 240.65 3.025 A 0.5 0.5 0 0 1 241.15 2.525 Z M 260.2 2.525 L 273.2 2.525 A 0.5 0.5 0 0 1 273.7 3.025 L 273.7 16.025 A 0.5 0.5 0 0 1 273.2 16.525 L 260.2 16.525 A 0.5 0.5 0 0 1 259.7 16.025 L 259.7 3.025 A 0.5 0.5 0 0 1 260.2 2.525 Z M 288.775 2.525 L 301.775 2.525 A 0.5 0.5 0 0 1 302.275 3.025 L 302.275 16.025 A 0.5 0.5 0 0 1 301.775 16.525 L 288.775 16.525 A 0.5 0.5 0 0 1 288.275 16.025 L 288.275 3.025 A 0.5 0.5 0 0 1 288.775 2.525 Z M 326.875 2.525 L 339.875 2.525 A 0.5 0.5 0 0 1 340.375 3.025 L 340.375 16.025 A 0.5 0.5 0 0 1 339.875 16.525 L 326.875 16.525 A 0.5 0.5 0 0 1 326.375 16.025 L 326.375 3.025 A 0.5 0.5 0 0 1 326.875 2.525 Z M 345.925 2.525 L 358.925 2.525 A 0.5 0.5 0 0 1 359.425 3.025 L 359.425 16.025 A 0.5 0.5 0 0 1 358.925 16.525 L 345.925 16.525 A 0.5 0.5 0 0 1 345.425 16.025 L 345.425 3.025 A 0.5 0.5 0 0 1 345.925 2.525 Z M 364.975 2.525 L 377.975 2.525 A 0.5 0.5 0 0 1 378.475 3.025 L 378.475 16.025 A 0.5 0.5 0 0 1 377.975 16.525 L 364.975 16.525 A 0.5 0.5 0 0 1 364.475 16.025 L 364.475 3.025 A 0.5 0.5 0 0 1 364.975 2.525 Z M 3.025 40.625 L 16.025 40.625 A 0.5 0.5 0 0 1 16.525 41.125 L 16.525 54.125 A 0.5 0.5 0 0 1 16.025 54.625 L 3.025 54.625 A 0.5 0.5 0 0 1 2.525 54.125 L 2.525 41.125 A 0.5 0.5 0 0 1 3.025 40.625 Z M 3.025 59.675 L 16.025 59.675 A 0.5 0.5 0 0 1 16.525 60.175 L 16.525 73.175 A 0.5 0.5 0 0 1 16.025 73.675 L 3.025 73.675 A 0.5 0.5 0 0 1 2.525 73.175 L 2.525 60.175 A 0.5 0.5 0 0 1 3.025 59.675 Z M 117.325 21.575 L 130.325 21.575 A 0.5 0.5 0 0 1 130.825 22.075 L 130.825 35.075 A 0.5 0.5 0 0 1 130.325 35.575 L 117.325 35.575 A 0.5 0.5 0 0 1 116.825 35.075 L 116.825 22.075 A 0.5 0.5 0 0 1 117.325 21.575 Z M 58.944 60.675 L 64.944 60.675 A 0.5 0.5 0 0 1 65.444 61.175 L 65.444 75.175 A 0.5 0.5 0 0 1 64.944 75.675 L 58.944 75.675 A 0.5 0.5 0 0 1 58.444 75.175 L 58.444 61.175 A 0.5 0.5 0 0 1 58.944 60.675 Z M 277.956 41.625 L 283.956 41.625 A 0.5 0.5 0 0 1 284.456 42.125 L 284.456 56.125 A 0.5 0.5 0 0 1 283.956 56.625 L 277.956 56.625 A 0.5 0.5 0 0 1 277.456 56.125 L 277.456 42.125 A 0.5 0.5 0 0 1 277.956 41.625 Z M 301.832 41.625 L 307.832 41.625 A 0.5 0.5 0 0 1 308.332 42.125 L 308.332 56.125 A 0.5 0.5 0 0 1 307.832 56.625 L 301.832 56.625 A 0.5 0.5 0 0 1 301.332 56.125 L 301.332 42.125 A 0.5 0.5 0 0 1 301.832 41.625 Z M 35.068 60.675 L 41.068 60.675 A 0.5 0.5 0 0 1 41.568 61.175 L 41.568 75.175 A 0.5 0.5 0 0 1 41.068 75.675 L 35.068 75.675 A 0.5 0.5 0 0 1 34.568 75.175 L 34.568 61.175 A 0.5 0.5 0 0 1 35.068 60.675 Z M 273.193 60.675 L 279.193 60.675 A 0.5 0.5 0 0 1 279.693 61.175 L 279.693 75.175 A 0.5 0.5 0 0 1 279.193 75.675 L 273.193 75.675 A 0.5 0.5 0 0 1 272.693 75.175 L 272.693 61.175 A 0.5 0.5 0 0 1 273.193 60.675 Z M 297.069 60.675 L 303.069 60.675 A 0.5 0.5 0 0 1 303.569 61.175 L 303.569 75.175 A 0.5 0.5 0 0 1 303.069 75.675 L 297.069 75.675 A 0.5 0.5 0 0 1 296.569 75.175 L 296.569 61.175 A 0.5 0.5 0 0 1 297.069 60.675 Z M 106.544 79.725 L 112.544 79.725 A 0.5 0.5 0 0 1 113.044 80.225 L 113.044 94.225 A 0.5 0.5 0 0 1 112.544 94.725 L 106.544 94.725 A 0.5 0.5 0 0 1 106.044 94.225 L 106.044 80.225 A 0.5 0.5 0 0 1 106.544 79.725 Z M 206.544 79.725 L 212.544 79.725 A 0.5 0.5 0 0 1 213.044 80.225 L 213.044 94.225 A 0.5 0.5 0 0 1 212.544 94.725 L 206.544 94.725 A 0.5 0.5 0 0 1 206.044 94.225 L 206.044 80.225 A 0.5 0.5 0 0 1 206.544 79.725 Z M 280.337 3.525 L 286.337 3.525 A 0.5 0.5 0 0 1 286.837 4.025 L 286.837 18.025 A 0.5 0.5 0 0 1 286.337 18.525 L 280.337 18.525 A 0.5 0.5 0 0 1 279.837 18.025 L 279.837 4.025 A 0.5 0.5 0 0 1 280.337 3.525 Z M 304.213 3.525 L 310.213 3.525 A 0.5 0.5 0 0 1 310.713 4.025 L 310.713 18.025 A 0.5 0.5 0 0 1 310.213 18.525 L 304.213 18.525 A 0.5 0.5 0 0 1 303.713 18.025 L 303.713 4.025 A 0.5 0.5 0 0 1 304.213 3.525 Z" vector-effect="non-scaling-stroke"/></g></svg>